<svg id="svg" xmlns="http://www.w3.org/2000/svg" xmlns:xlink="http://www.w3.org/1999/xlink" width="400" height="454.4" viewBox="0, 0, 400,454.4"><g id="svgg"><path id="path0" d="M174.348 0.333 C 174.264 0.573,172.844 0.792,171.079 0.837 C 168.846 0.895,167.708 1.112,167.079 1.599 C 166.524 2.029,165.098 2.370,163.206 2.525 C 161.281 2.682,160.060 2.977,159.786 3.352 C 159.514 3.723,158.496 3.975,156.981 4.045 C 155.309 4.122,154.424 4.364,154.001 4.857 C 153.601 5.325,152.731 5.588,151.400 5.645 C 150.201 5.696,149.080 6.003,148.600 6.412 C 148.160 6.787,147.103 7.200,146.250 7.330 C 145.398 7.460,144.394 7.843,144.019 8.183 C 143.644 8.522,142.854 8.800,142.265 8.800 C 141.675 8.800,140.884 9.160,140.507 9.600 C 140.084 10.095,139.327 10.400,138.525 10.400 C 137.638 10.400,137.093 10.653,136.800 11.200 C 136.483 11.791,135.962 12.000,134.802 12.000 C 133.764 12.000,132.987 12.263,132.510 12.774 C 132.114 13.199,131.342 13.609,130.795 13.684 C 129.501 13.861,128.728 14.359,129.017 14.828 C 129.144 15.032,128.608 15.200,127.827 15.200 C 126.840 15.200,126.254 15.444,125.907 16.000 C 125.632 16.440,125.029 16.800,124.566 16.800 C 124.103 16.800,123.414 17.142,123.036 17.560 C 122.657 17.979,121.729 18.437,120.974 18.579 C 120.156 18.732,119.600 19.072,119.600 19.418 C 119.600 19.738,119.268 20.000,118.862 20.000 C 118.456 20.000,117.798 20.360,117.400 20.800 C 117.002 21.240,116.345 21.600,115.941 21.600 C 115.537 21.600,114.982 21.960,114.707 22.400 C 114.432 22.840,113.901 23.200,113.527 23.200 C 113.153 23.200,112.734 23.383,112.596 23.607 C 112.458 23.830,112.149 23.892,111.911 23.745 C 111.651 23.584,111.591 23.663,111.762 23.939 C 111.936 24.221,111.644 24.555,111.014 24.795 C 110.445 25.011,109.875 25.461,109.747 25.794 C 109.619 26.127,109.184 26.400,108.781 26.400 C 108.377 26.400,107.934 26.583,107.796 26.807 C 107.658 27.030,107.349 27.092,107.111 26.945 C 106.851 26.784,106.791 26.863,106.962 27.139 C 107.136 27.421,106.844 27.755,106.214 27.995 C 105.645 28.211,105.081 28.644,104.961 28.958 C 104.841 29.271,104.306 29.637,103.773 29.771 C 103.241 29.905,102.849 30.212,102.902 30.454 C 102.993 30.863,102.741 30.975,100.900 31.338 C 100.515 31.414,100.197 31.639,100.194 31.838 C 100.184 32.424,98.015 34.400,97.382 34.400 C 97.062 34.400,96.800 34.760,96.800 35.200 C 96.800 35.665,96.533 36.000,96.163 36.000 C 95.812 36.000,95.431 36.360,95.316 36.800 C 95.201 37.240,94.858 37.627,94.553 37.660 C 94.249 37.693,93.775 37.738,93.500 37.760 C 92.819 37.814,92.043 38.532,92.266 38.900 C 92.365 39.065,92.257 39.223,92.024 39.250 C 91.791 39.278,91.375 39.323,91.100 39.350 C 90.825 39.377,90.578 39.625,90.550 39.900 C 90.523 40.175,90.478 40.591,90.450 40.824 C 90.423 41.057,90.240 41.149,90.045 41.028 C 89.593 40.749,88.713 41.780,89.086 42.153 C 89.239 42.306,88.985 42.531,88.520 42.653 C 88.054 42.774,87.584 43.217,87.474 43.637 C 87.365 44.057,86.988 44.400,86.637 44.400 C 86.287 44.400,86.000 44.670,86.000 45.000 C 86.000 45.330,85.775 45.602,85.500 45.604 C 84.879 45.610,82.400 48.119,82.400 48.743 C 82.400 48.994,82.130 49.200,81.800 49.200 C 81.470 49.200,81.200 49.360,81.200 49.555 C 81.200 49.751,80.380 50.786,79.379 51.855 C 76.530 54.896,76.000 55.542,76.000 55.972 C 76.000 56.192,75.640 56.565,75.200 56.800 C 74.760 57.035,74.400 57.492,74.400 57.814 C 74.400 58.136,74.040 58.400,73.600 58.400 C 73.082 58.400,72.800 58.667,72.800 59.157 C 72.800 59.574,72.527 60.019,72.194 60.147 C 71.861 60.275,71.411 60.845,71.195 61.414 C 70.943 62.076,70.621 62.345,70.301 62.160 C 70.025 62.001,69.929 62.014,70.086 62.188 C 70.243 62.363,70.160 62.887,69.901 63.353 C 69.642 63.819,69.468 64.335,69.515 64.500 C 69.562 64.665,69.390 64.755,69.133 64.700 C 68.876 64.645,68.471 64.964,68.233 65.408 C 67.995 65.853,67.180 66.895,66.422 67.723 C 65.665 68.552,64.986 69.613,64.915 70.083 C 64.843 70.552,64.428 71.185,63.992 71.491 C 63.556 71.796,63.200 72.502,63.200 73.060 C 63.200 73.738,62.935 74.144,62.400 74.284 C 61.960 74.399,61.600 74.789,61.600 75.150 C 61.600 75.512,61.240 76.032,60.800 76.307 C 60.315 76.610,60.000 77.240,60.000 77.907 C 60.000 78.574,59.685 79.204,59.200 79.507 C 58.753 79.787,58.400 80.440,58.400 80.989 C 58.400 81.562,58.067 82.150,57.600 82.400 C 57.160 82.635,56.800 83.192,56.800 83.638 C 56.800 84.083,56.665 84.365,56.500 84.266 C 56.012 83.970,55.410 84.912,55.264 86.200 C 55.190 86.860,54.801 87.760,54.399 88.200 C 53.998 88.640,53.605 89.450,53.526 90.000 C 53.434 90.633,53.164 90.951,52.791 90.867 C 52.466 90.793,52.320 90.853,52.466 90.999 C 52.612 91.146,52.484 91.858,52.182 92.582 C 51.879 93.306,51.719 93.986,51.826 94.092 C 51.932 94.199,51.700 94.537,51.310 94.843 C 50.649 95.361,50.642 95.345,51.200 94.600 C 51.739 93.882,51.737 93.849,51.179 94.283 C 50.824 94.560,50.518 95.502,50.465 96.483 C 50.409 97.505,50.109 98.398,49.724 98.689 C 49.369 98.958,48.959 99.858,48.814 100.689 C 48.669 101.520,48.367 102.165,48.142 102.122 C 47.917 102.079,47.701 102.259,47.660 102.522 C 47.620 102.785,47.481 103.769,47.351 104.709 C 47.199 105.805,46.843 106.563,46.357 106.823 C 45.759 107.143,45.600 107.678,45.600 109.367 C 45.600 111.170,45.474 111.540,44.800 111.716 C 44.119 111.894,44.000 112.262,44.000 114.186 C 44.000 115.430,43.865 116.365,43.700 116.266 C 43.031 115.861,42.581 117.149,42.465 119.800 C 42.378 121.777,42.155 122.745,41.705 123.092 C 41.248 123.445,41.015 124.504,40.880 126.844 C 40.729 129.447,40.557 130.138,40.025 130.278 C 39.472 130.422,39.341 131.104,39.251 134.306 C 39.191 136.426,38.969 138.484,38.757 138.880 C 38.480 139.398,38.516 139.607,38.886 139.625 C 39.169 139.639,39.006 139.810,38.523 140.004 L 37.647 140.357 37.741 160.678 C 37.836 181.130,37.884 182.234,38.707 182.742 C 38.983 182.913,39.185 184.556,39.231 186.989 C 39.297 190.567,39.911 193.555,40.466 193.001 C 40.583 192.884,40.714 194.096,40.757 195.694 C 40.820 197.986,40.994 198.727,41.583 199.200 C 42.154 199.659,42.361 200.458,42.465 202.600 C 42.566 204.690,42.778 205.533,43.300 205.923 C 43.802 206.297,44.000 207.005,44.000 208.423 C 44.000 209.867,44.216 210.616,44.800 211.200 C 45.278 211.678,45.600 212.533,45.600 213.325 C 45.600 214.096,45.934 215.008,46.400 215.508 C 46.958 216.107,47.200 216.919,47.200 218.196 C 47.200 219.447,47.388 220.097,47.796 220.254 C 48.123 220.379,48.586 221.229,48.824 222.141 C 49.063 223.054,49.487 223.980,49.766 224.200 C 50.046 224.420,50.401 225.275,50.556 226.100 C 50.727 227.017,51.062 227.600,51.418 227.600 C 51.819 227.600,52.000 228.045,52.000 229.029 C 52.000 230.289,52.828 231.839,53.267 231.400 C 53.356 231.311,53.465 231.671,53.508 232.201 C 53.647 233.880,53.783 234.193,54.500 234.487 C 54.956 234.674,55.200 235.210,55.200 236.025 C 55.200 236.938,55.415 237.331,56.000 237.484 C 56.562 237.631,56.800 238.030,56.800 238.824 C 56.800 239.486,57.119 240.178,57.568 240.493 C 57.991 240.789,58.415 241.654,58.510 242.415 C 58.610 243.211,58.887 243.755,59.161 243.694 C 59.423 243.635,59.825 244.125,60.054 244.782 C 60.283 245.439,60.671 245.937,60.917 245.888 C 61.363 245.800,61.456 246.057,61.550 247.637 C 61.578 248.112,61.947 248.566,62.400 248.684 C 63.081 248.862,63.246 249.263,63.192 250.608 C 63.175 251.022,64.208 251.911,64.500 251.734 C 64.665 251.635,64.823 251.743,64.850 251.976 C 64.877 252.209,64.922 252.625,64.950 252.900 C 64.978 253.175,65.268 253.400,65.596 253.400 C 65.928 253.400,66.283 253.882,66.396 254.487 C 66.508 255.085,67.275 256.284,68.100 257.151 C 68.925 258.019,69.600 259.015,69.600 259.364 C 69.600 259.733,69.936 260.000,70.400 260.000 C 71.102 260.000,71.409 260.602,71.255 261.677 C 71.233 261.829,71.667 262.309,72.219 262.743 C 72.771 263.178,73.172 263.773,73.111 264.066 C 73.046 264.381,73.287 264.552,73.700 264.482 C 74.185 264.401,74.400 264.628,74.400 265.220 C 74.400 265.738,74.715 266.157,75.200 266.284 C 75.643 266.400,76.000 266.830,76.000 267.247 C 76.000 267.733,76.283 268.000,76.800 268.000 C 77.333 268.000,77.600 268.267,77.600 268.800 C 77.600 269.333,77.867 269.600,78.400 269.600 C 78.840 269.600,79.200 269.806,79.200 270.058 C 79.200 270.310,79.555 270.895,79.989 271.358 C 82.433 273.965,83.018 274.745,82.867 275.198 C 82.775 275.474,82.933 275.622,83.218 275.527 C 83.502 275.433,83.950 274.735,84.213 273.977 C 84.633 272.766,86.913 270.329,92.959 264.630 C 94.458 263.217,118.162 240.125,125.016 233.400 C 133.053 225.515,155.648 203.450,157.800 201.386 C 161.652 197.690,184.186 175.752,189.216 170.800 C 195.475 164.638,219.065 141.601,221.800 138.980 C 225.498 135.437,248.067 113.454,253.812 107.800 C 258.601 103.086,281.032 81.180,287.193 75.200 C 288.213 74.210,294.678 67.910,301.560 61.201 C 308.442 54.491,314.192 48.911,314.337 48.801 C 316.235 47.352,315.238 44.024,312.900 44.004 C 312.625 44.002,312.400 43.751,312.400 43.447 C 312.400 43.142,312.022 42.794,311.560 42.674 C 311.098 42.553,310.831 42.274,310.966 42.055 C 311.218 41.647,310.520 41.018,309.800 41.005 C 309.580 41.001,309.400 40.639,309.399 40.200 C 309.399 39.757,309.131 39.401,308.799 39.401 C 308.470 39.400,308.120 39.220,308.022 39.000 C 307.712 38.301,307.010 37.678,306.726 37.850 C 306.575 37.941,305.998 37.562,305.444 37.008 C 304.890 36.453,304.158 36.000,303.818 36.000 C 303.474 36.000,303.200 35.658,303.200 35.228 C 303.200 34.732,302.878 34.410,302.300 34.328 C 301.805 34.258,301.400 33.930,301.400 33.600 C 301.400 33.270,301.175 32.977,300.900 32.950 C 300.625 32.923,300.212 32.877,299.982 32.850 C 299.753 32.822,299.618 32.508,299.682 32.151 C 299.766 31.693,299.449 31.464,298.600 31.370 C 297.940 31.298,297.153 30.869,296.851 30.419 C 296.549 29.969,296.054 29.600,295.751 29.600 C 295.448 29.600,295.200 29.324,295.200 28.987 C 295.200 28.651,294.885 28.263,294.500 28.127 C 294.115 27.990,293.477 27.601,293.082 27.261 C 292.687 26.922,292.021 26.591,291.601 26.527 C 291.181 26.463,290.178 25.751,289.372 24.945 C 288.566 24.139,287.343 23.364,286.653 23.224 C 285.939 23.077,285.400 22.716,285.400 22.384 C 285.400 21.811,285.250 21.751,283.563 21.650 C 283.088 21.622,282.634 21.253,282.516 20.800 C 282.379 20.277,281.970 20.000,281.336 20.000 C 280.638 20.000,280.398 19.806,280.482 19.309 C 280.548 18.924,280.335 18.598,280.000 18.570 C 279.670 18.544,278.905 18.494,278.300 18.461 C 277.620 18.423,277.200 18.173,277.200 17.805 C 277.200 17.420,276.635 17.119,275.600 16.954 C 274.690 16.808,274.000 16.475,274.000 16.181 C 274.000 15.896,273.415 15.538,272.700 15.385 C 271.985 15.232,271.078 14.768,270.684 14.353 C 270.291 13.939,269.425 13.600,268.761 13.600 C 268.096 13.600,267.651 13.440,267.772 13.245 C 267.976 12.915,266.844 11.680,266.539 11.900 C 266.194 12.149,264.373 11.967,264.534 11.700 C 264.878 11.132,263.796 10.600,262.007 10.457 C 260.820 10.362,260.035 10.057,259.685 9.557 C 259.369 9.106,258.679 8.800,257.977 8.800 C 257.330 8.800,256.440 8.440,256.000 8.000 C 255.434 7.434,254.667 7.200,253.376 7.200 C 252.373 7.200,251.635 7.065,251.734 6.900 C 252.115 6.271,250.912 5.795,248.600 5.660 C 247.119 5.573,245.919 5.270,245.467 4.868 C 245.064 4.509,243.804 4.119,242.667 4.002 C 241.395 3.870,240.635 3.607,240.692 3.319 C 240.742 3.062,240.472 2.830,240.092 2.805 C 234.404 2.422,233.555 2.295,233.725 1.852 C 233.934 1.306,233.811 1.281,229.300 0.954 C 227.235 0.805,225.998 0.544,225.994 0.258 C 225.990 0.001,225.802 0.063,225.563 0.400 C 225.244 0.852,225.089 0.876,224.936 0.500 C 224.639 -0.232,175.761 -0.232,175.464 0.500 C 175.306 0.888,175.175 0.878,174.879 0.455 C 174.643 0.118,174.440 0.072,174.348 0.333 M218.000 24.370 C 218.770 24.612,221.073 24.999,223.118 25.229 C 225.162 25.459,227.570 25.907,228.468 26.224 C 229.366 26.541,230.483 26.797,230.950 26.794 C 231.723 26.789,234.341 27.511,239.200 29.068 C 240.190 29.386,241.720 29.825,242.600 30.045 C 243.480 30.265,244.599 30.705,245.086 31.022 C 245.573 31.340,246.226 31.600,246.538 31.600 C 247.266 31.600,250.499 33.036,257.000 36.245 C 262.661 39.040,262.729 39.078,266.113 41.289 C 267.384 42.120,268.583 42.800,268.777 42.800 C 268.970 42.800,270.039 43.520,271.152 44.400 C 272.266 45.280,273.291 46.000,273.430 46.000 C 273.570 46.000,274.250 46.458,274.942 47.017 C 275.634 47.576,276.610 48.341,277.110 48.717 C 277.611 49.093,278.255 49.608,278.543 49.861 C 278.830 50.115,280.221 51.274,281.633 52.436 C 290.265 59.542,290.795 60.618,287.300 63.939 C 283.863 67.204,263.102 87.391,256.589 93.800 C 251.813 98.500,229.468 120.322,223.208 126.400 C 222.188 127.390,216.162 133.240,209.816 139.400 C 203.471 145.560,195.718 153.120,192.588 156.200 C 187.130 161.571,163.356 184.810,158.215 189.800 C 141.729 205.801,131.414 215.852,125.273 221.900 C 117.234 229.817,116.145 230.475,114.690 228.300 C 114.359 227.805,113.303 226.585,112.344 225.589 C 110.460 223.632,106.970 219.462,106.000 218.008 C 105.497 217.255,104.380 215.736,102.905 213.800 C 102.737 213.580,102.077 212.590,101.437 211.600 C 100.798 210.610,99.976 209.350,99.610 208.800 C 99.245 208.250,98.815 207.530,98.654 207.200 C 98.493 206.870,97.933 205.880,97.409 205.000 C 95.243 201.361,90.396 191.130,88.976 187.200 C 88.618 186.210,88.079 184.590,87.777 183.600 C 87.475 182.610,86.973 180.990,86.662 180.000 C 85.855 177.430,85.199 174.906,84.738 172.600 C 84.518 171.500,84.090 169.700,83.788 168.600 C 83.485 167.500,83.054 164.800,82.830 162.600 C 82.606 160.400,82.238 157.630,82.012 156.445 C 81.493 153.730,81.471 137.190,81.983 134.492 C 82.193 133.382,82.563 130.528,82.805 128.150 C 83.047 125.772,83.493 122.831,83.795 121.613 C 84.098 120.396,84.527 118.590,84.748 117.600 C 85.293 115.158,85.983 112.562,86.662 110.400 C 86.973 109.410,87.475 107.790,87.777 106.800 C 88.672 103.865,89.572 101.470,90.205 100.338 C 90.532 99.754,90.800 99.068,90.800 98.814 C 90.800 97.695,97.676 84.382,100.400 80.227 C 108.141 68.418,117.247 58.261,126.962 50.600 C 128.705 49.226,129.681 48.447,131.458 47.014 C 132.150 46.456,132.906 46.000,133.138 46.000 C 133.370 46.000,133.704 45.774,133.880 45.499 C 134.230 44.951,137.281 42.800,137.709 42.800 C 137.855 42.800,139.016 42.120,140.287 41.289 C 143.589 39.132,143.626 39.111,149.828 36.012 C 152.923 34.465,155.668 33.200,155.929 33.200 C 156.190 33.200,157.075 32.840,157.896 32.400 C 158.716 31.960,159.666 31.600,160.005 31.600 C 160.344 31.600,160.999 31.336,161.459 31.014 C 161.919 30.691,162.995 30.251,163.848 30.036 C 164.702 29.821,166.210 29.386,167.200 29.068 C 172.482 27.375,176.653 26.347,181.400 25.570 C 187.298 24.604,191.522 23.971,193.000 23.832 C 196.426 23.510,216.647 23.945,218.000 24.370 M280.588 96.119 C 279.701 97.043,273.779 102.840,267.427 109.000 C 261.076 115.160,253.319 122.720,250.189 125.800 C 245.288 130.623,222.300 153.072,216.806 158.400 C 208.519 166.436,189.340 185.112,185.382 189.000 C 180.140 194.149,155.905 217.831,151.815 221.800 C 130.724 242.271,125.501 247.356,121.210 251.600 C 118.429 254.350,115.318 257.361,114.296 258.291 C 110.760 261.509,110.845 261.701,118.775 268.419 C 120.191 269.618,121.663 270.870,122.046 271.200 C 123.657 272.588,124.206 273.021,124.832 273.400 C 126.443 274.373,127.825 275.420,128.120 275.890 C 128.296 276.171,128.603 276.400,128.802 276.400 C 129.142 276.400,131.674 277.952,132.638 278.752 C 132.878 278.951,133.598 279.411,134.238 279.773 C 134.877 280.135,136.120 280.855,137.000 281.372 C 138.918 282.500,145.806 285.956,148.600 287.192 C 152.995 289.137,152.565 288.971,159.400 291.361 C 160.500 291.746,162.210 292.229,163.200 292.436 C 164.190 292.643,165.720 293.068,166.600 293.382 C 167.480 293.695,169.100 294.070,170.200 294.215 C 171.300 294.360,172.512 294.646,172.894 294.850 C 173.276 295.055,175.706 295.482,178.294 295.799 C 180.882 296.117,184.170 296.558,185.600 296.780 C 188.666 297.256,204.430 297.276,207.600 296.808 C 208.810 296.629,211.510 296.274,213.600 296.019 C 217.055 295.598,222.024 294.628,226.200 293.560 C 227.080 293.335,228.878 292.879,230.195 292.546 C 231.512 292.213,232.772 291.794,232.995 291.616 C 233.218 291.438,234.030 291.161,234.800 291.001 C 235.570 290.841,236.955 290.370,237.878 289.955 C 238.801 289.540,239.741 289.200,239.967 289.200 C 240.336 289.200,241.606 288.677,245.400 286.963 C 246.060 286.665,247.050 286.237,247.600 286.012 C 248.150 285.786,248.870 285.421,249.200 285.201 C 249.530 284.980,250.250 284.620,250.800 284.400 C 252.995 283.522,259.582 279.695,263.284 277.146 C 263.880 276.736,264.555 276.400,264.784 276.400 C 265.013 276.400,265.200 276.238,265.200 276.040 C 265.200 275.727,266.173 275.014,268.807 273.397 C 269.167 273.176,269.757 272.726,270.117 272.397 C 271.083 271.517,271.895 270.833,274.790 268.462 C 281.437 263.019,290.708 252.903,295.009 246.400 C 295.664 245.410,296.337 244.420,296.505 244.200 C 297.226 243.253,300.244 238.514,300.708 237.600 C 300.987 237.050,301.654 235.880,302.189 235.000 C 302.724 234.120,303.275 233.130,303.413 232.800 C 303.912 231.610,304.401 230.589,304.752 230.000 C 304.950 229.670,305.598 228.320,306.193 227.000 C 306.789 225.680,307.529 224.122,307.838 223.538 C 308.147 222.954,308.401 222.234,308.402 221.938 C 308.404 221.642,308.691 220.860,309.042 220.200 C 309.392 219.540,309.910 218.190,310.194 217.200 C 310.478 216.210,310.903 214.860,311.139 214.200 C 312.067 211.604,312.873 208.892,313.399 206.600 C 316.596 192.671,316.604 192.596,316.565 176.600 C 316.542 167.069,316.371 161.524,316.059 160.200 C 315.800 159.100,315.318 156.518,314.988 154.462 C 314.658 152.407,314.228 150.427,314.033 150.062 C 313.838 149.698,313.547 148.500,313.386 147.400 C 313.225 146.300,312.757 144.538,312.347 143.485 C 311.936 142.432,311.599 141.262,311.598 140.885 C 311.596 140.508,311.343 139.717,311.035 139.127 C 310.727 138.537,310.344 137.457,310.184 136.727 C 310.024 135.997,309.557 134.773,309.147 134.006 C 308.736 133.239,308.400 132.367,308.400 132.068 C 308.400 131.768,308.144 131.046,307.831 130.462 C 307.267 129.409,306.029 126.724,305.222 124.800 C 304.991 124.250,304.621 123.530,304.401 123.200 C 304.180 122.870,303.810 122.150,303.579 121.600 C 303.348 121.050,302.722 119.880,302.187 119.000 C 301.653 118.120,300.988 116.950,300.710 116.400 C 298.880 112.785,291.112 102.082,287.485 98.181 C 286.118 96.711,284.856 95.259,284.680 94.954 C 284.049 93.860,282.267 94.367,280.588 96.119 " stroke="none" fill="#a39b93" fill-rule="evenodd"></path><path id="path1" d="M196.600 25.184 C 195.500 25.361,192.350 25.638,189.600 25.801 C 186.850 25.964,183.880 26.345,183.000 26.647 C 182.120 26.950,180.410 27.304,179.200 27.435 C 177.990 27.566,175.964 28.017,174.698 28.437 C 173.433 28.857,171.967 29.200,171.442 29.200 C 170.917 29.200,169.703 29.556,168.744 29.991 C 167.785 30.426,166.640 30.792,166.200 30.805 C 165.760 30.817,164.680 31.175,163.800 31.600 C 162.920 32.025,161.840 32.380,161.400 32.389 C 160.960 32.398,160.060 32.763,159.400 33.200 C 158.740 33.637,157.840 33.997,157.400 34.000 C 156.960 34.003,156.060 34.363,155.400 34.800 C 154.740 35.237,153.898 35.596,153.529 35.597 C 153.159 35.599,152.619 35.837,152.329 36.127 C 152.038 36.417,151.260 36.849,150.600 37.088 C 149.940 37.327,148.590 37.990,147.600 38.561 C 146.610 39.133,145.170 39.890,144.400 40.245 C 143.630 40.600,142.910 41.022,142.800 41.183 C 142.588 41.495,141.040 42.370,138.900 43.391 C 138.185 43.732,137.600 44.176,137.600 44.378 C 137.600 44.581,137.261 44.854,136.848 44.985 C 136.434 45.116,135.719 45.533,135.259 45.912 C 134.799 46.290,133.421 47.320,132.197 48.200 C 125.701 52.868,120.372 57.726,113.497 65.244 C 109.524 69.589,108.001 71.368,108.000 71.663 C 108.000 71.808,107.235 72.893,106.300 74.075 C 105.365 75.256,104.420 76.514,104.200 76.870 C 103.980 77.227,103.215 78.356,102.500 79.379 C 101.785 80.403,101.200 81.375,101.200 81.540 C 101.200 81.705,100.976 82.064,100.703 82.337 C 99.389 83.651,91.600 99.206,91.600 100.517 C 91.600 100.789,91.240 101.684,90.800 102.504 C 90.360 103.325,90.000 104.315,90.000 104.704 C 90.000 105.094,89.640 106.084,89.200 106.904 C 88.760 107.725,88.400 108.751,88.400 109.184 C 88.400 109.616,88.040 110.884,87.600 112.000 C 87.160 113.116,86.800 114.477,86.800 115.025 C 86.800 115.572,86.440 117.044,86.000 118.296 C 85.560 119.548,85.200 121.184,85.200 121.931 C 85.200 122.679,84.807 124.845,84.327 126.745 C 82.994 132.020,82.994 158.380,84.327 163.655 C 84.807 165.555,85.200 167.721,85.200 168.469 C 85.200 169.216,85.560 170.852,86.000 172.104 C 86.440 173.356,86.800 174.974,86.800 175.701 C 86.800 176.428,87.064 177.399,87.387 177.860 C 87.710 178.321,88.097 179.486,88.248 180.449 C 88.398 181.412,88.854 182.827,89.261 183.594 C 89.667 184.361,90.000 185.306,90.000 185.696 C 90.000 186.085,90.360 187.075,90.800 187.896 C 91.240 188.716,91.600 189.616,91.600 189.896 C 91.600 190.175,91.960 191.075,92.400 191.896 C 92.840 192.716,93.200 193.632,93.200 193.931 C 93.200 194.230,93.560 194.931,94.000 195.491 C 94.440 196.050,94.804 196.799,94.809 197.154 C 94.814 197.509,95.170 198.250,95.600 198.800 C 96.030 199.350,96.386 200.104,96.391 200.476 C 96.396 200.848,96.598 201.275,96.841 201.425 C 97.083 201.575,97.549 202.261,97.876 202.949 C 98.789 204.873,99.675 206.395,101.306 208.841 C 102.128 210.074,102.800 211.229,102.800 211.408 C 102.800 211.587,103.073 212.018,103.408 212.366 C 103.742 212.715,105.137 214.531,106.508 216.403 C 108.668 219.351,112.667 224.173,115.372 227.093 C 116.820 228.655,116.063 229.272,132.403 213.200 C 149.686 196.200,168.959 177.342,170.551 175.873 C 172.820 173.778,188.553 158.518,196.399 150.800 C 211.343 136.101,240.030 108.093,249.000 99.444 C 254.730 93.919,268.597 80.386,279.412 69.766 C 284.135 65.127,288.000 61.056,288.000 60.719 C 288.000 59.677,280.720 53.024,274.800 48.658 C 273.150 47.441,271.582 46.254,271.315 46.021 C 271.048 45.787,270.373 45.388,269.815 45.134 C 269.257 44.880,268.800 44.523,268.800 44.341 C 268.800 44.159,268.215 43.732,267.500 43.391 C 265.360 42.370,263.812 41.495,263.600 41.183 C 263.490 41.022,262.770 40.598,262.000 40.242 C 261.230 39.886,259.880 39.154,259.000 38.616 C 258.120 38.078,257.130 37.528,256.800 37.393 C 255.688 36.940,252.611 35.508,251.121 34.751 C 250.307 34.338,249.405 34.000,249.115 34.000 C 248.825 34.000,247.916 33.640,247.096 33.200 C 246.275 32.760,245.285 32.400,244.896 32.400 C 244.506 32.400,243.516 32.040,242.696 31.600 C 241.875 31.160,240.797 30.796,240.301 30.791 C 239.806 30.786,238.615 30.426,237.656 29.991 C 236.697 29.556,235.489 29.200,234.970 29.200 C 234.452 29.200,233.167 28.902,232.114 28.538 C 231.061 28.174,228.850 27.649,227.200 27.371 C 225.550 27.093,223.390 26.680,222.400 26.454 C 217.935 25.433,200.426 24.572,196.600 25.184 M316.000 48.036 C 316.000 48.568,314.558 50.280,312.041 52.736 C 309.863 54.861,300.908 63.618,292.141 72.195 C 271.113 92.767,266.466 97.294,259.844 103.659 C 256.788 106.597,251.723 111.520,248.589 114.600 C 229.273 133.584,211.961 150.542,210.962 151.459 C 209.462 152.835,190.212 171.503,183.594 178.000 C 161.360 199.826,147.944 212.959,146.961 213.858 C 145.475 215.219,126.465 233.671,118.999 241.000 C 115.861 244.080,107.243 252.525,99.847 259.767 C 87.968 271.399,86.399 273.078,86.395 274.167 C 86.386 276.002,85.976 277.200,85.356 277.200 C 84.973 277.200,85.071 277.505,85.675 278.200 C 86.153 278.750,86.782 279.200,87.072 279.200 C 87.362 279.200,87.600 279.470,87.600 279.800 C 87.600 280.130,87.862 280.400,88.182 280.400 C 88.502 280.400,89.214 280.850,89.764 281.400 C 90.314 281.950,91.042 282.400,91.382 282.400 C 91.733 282.400,92.000 282.745,92.000 283.200 C 92.000 283.733,92.267 284.000,92.800 284.000 C 93.333 284.000,93.600 284.267,93.600 284.800 C 93.600 285.333,93.867 285.600,94.400 285.600 C 94.933 285.600,95.200 285.867,95.200 286.400 C 95.200 286.933,95.467 287.200,96.000 287.200 C 96.452 287.200,96.800 287.467,96.800 287.813 C 96.800 288.149,97.115 288.538,97.500 288.677 C 97.885 288.815,98.522 289.259,98.916 289.664 C 99.309 290.069,100.074 290.400,100.616 290.400 C 101.333 290.400,101.600 290.617,101.600 291.200 C 101.600 291.733,101.867 292.000,102.400 292.000 C 102.852 292.000,103.200 292.267,103.200 292.613 C 103.200 292.949,103.515 293.338,103.900 293.477 C 104.285 293.615,104.922 294.059,105.316 294.464 C 105.709 294.869,106.474 295.200,107.016 295.200 C 107.733 295.200,108.000 295.417,108.000 296.000 C 108.000 296.497,108.267 296.800,108.704 296.800 C 109.091 296.800,109.632 297.160,109.907 297.600 C 110.219 298.099,110.840 298.400,111.557 298.400 C 112.370 298.400,112.768 298.634,112.916 299.200 C 113.034 299.653,113.462 300.000,113.901 300.000 C 114.327 300.000,115.002 300.360,115.400 300.800 C 115.798 301.240,116.435 301.600,116.815 301.600 C 117.196 301.600,117.601 301.960,117.716 302.400 C 117.875 303.006,118.262 303.200,119.316 303.200 C 120.370 303.200,120.757 303.394,120.916 304.000 C 121.075 304.606,121.462 304.800,122.516 304.800 C 123.570 304.800,123.957 304.994,124.116 305.600 C 124.276 306.213,124.662 306.400,125.763 306.400 C 126.933 306.400,127.200 306.548,127.200 307.200 C 127.200 307.863,127.467 308.000,128.753 308.000 C 129.970 308.000,130.352 308.173,130.516 308.800 C 130.675 309.406,131.062 309.600,132.116 309.600 C 133.170 309.600,133.557 309.794,133.716 310.400 C 133.873 310.999,134.262 311.200,135.266 311.200 C 136.174 311.200,136.769 311.458,137.107 312.000 C 137.496 312.622,138.040 312.800,139.557 312.800 C 141.170 312.800,141.543 312.938,141.716 313.600 C 141.876 314.213,142.262 314.400,143.363 314.400 C 144.267 314.400,145.097 314.697,145.600 315.200 C 146.133 315.733,146.933 316.000,148.000 316.000 C 149.067 316.000,149.867 316.267,150.400 316.800 C 151.019 317.419,151.733 317.600,153.553 317.600 C 155.570 317.600,155.937 317.714,156.116 318.400 C 156.298 319.096,156.662 319.200,158.901 319.200 C 160.968 319.200,161.619 319.358,162.200 320.000 C 162.799 320.662,163.432 320.800,165.862 320.800 C 168.267 320.800,168.945 320.945,169.600 321.600 C 170.307 322.307,170.933 322.400,175.000 322.400 C 179.088 322.400,179.690 322.490,180.411 323.211 C 181.582 324.382,218.989 324.278,220.290 323.100 C 220.925 322.525,221.827 322.400,225.331 322.400 C 229.067 322.400,229.700 322.300,230.400 321.600 C 231.054 320.946,231.733 320.800,234.125 320.800 C 236.496 320.800,237.211 320.649,237.908 320.000 C 238.573 319.380,239.319 319.200,241.221 319.200 C 243.338 319.200,243.704 319.090,243.884 318.400 C 244.063 317.714,244.430 317.600,246.447 317.600 C 248.267 317.600,248.981 317.419,249.600 316.800 C 250.133 316.267,250.933 316.000,252.000 316.000 C 253.067 316.000,253.867 315.733,254.400 315.200 C 254.903 314.697,255.733 314.400,256.637 314.400 C 257.738 314.400,258.124 314.213,258.284 313.600 C 258.457 312.938,258.830 312.800,260.443 312.800 C 261.960 312.800,262.504 312.622,262.893 312.000 C 263.231 311.458,263.826 311.200,264.734 311.200 C 265.738 311.200,266.127 310.999,266.284 310.400 C 266.443 309.794,266.830 309.600,267.884 309.600 C 268.938 309.600,269.325 309.406,269.484 308.800 C 269.648 308.173,270.030 308.000,271.247 308.000 C 272.533 308.000,272.800 307.863,272.800 307.200 C 272.800 306.533,273.067 306.400,274.400 306.400 C 275.733 306.400,276.000 306.267,276.000 305.600 C 276.000 304.948,276.267 304.800,277.437 304.800 C 278.538 304.800,278.924 304.613,279.084 304.000 C 279.243 303.394,279.630 303.200,280.684 303.200 C 281.738 303.200,282.125 303.006,282.284 302.400 C 282.400 301.957,282.830 301.600,283.247 301.600 C 283.661 301.600,284.360 301.240,284.800 300.800 C 285.240 300.360,285.960 300.000,286.400 300.000 C 286.933 300.000,287.200 299.733,287.200 299.200 C 287.200 298.578,287.467 298.400,288.397 298.400 C 289.160 298.400,289.774 298.110,290.093 297.600 C 290.368 297.160,290.909 296.800,291.296 296.800 C 291.733 296.800,292.000 296.497,292.000 296.000 C 292.000 295.381,292.267 295.200,293.177 295.200 C 293.856 295.200,294.576 294.893,294.877 294.474 C 295.165 294.074,295.715 293.630,296.100 293.486 C 296.485 293.343,296.800 292.949,296.800 292.613 C 296.800 292.267,297.148 292.000,297.600 292.000 C 298.133 292.000,298.400 291.733,298.400 291.200 C 298.400 290.581,298.667 290.400,299.577 290.400 C 300.256 290.400,300.976 290.093,301.277 289.674 C 301.565 289.274,302.115 288.830,302.500 288.686 C 302.885 288.543,303.200 288.149,303.200 287.813 C 303.200 287.467,303.548 287.200,304.000 287.200 C 304.533 287.200,304.800 286.933,304.800 286.400 C 304.800 285.867,305.067 285.600,305.600 285.600 C 306.133 285.600,306.400 285.333,306.400 284.800 C 306.400 284.267,306.667 284.000,307.200 284.000 C 307.733 284.000,308.000 283.733,308.000 283.200 C 308.000 282.678,308.267 282.400,308.766 282.400 C 309.187 282.400,310.013 281.995,310.601 281.500 C 312.656 279.771,319.200 273.366,319.200 273.084 C 319.200 272.928,319.560 272.440,320.000 272.000 C 320.440 271.560,320.800 270.840,320.800 270.400 C 320.800 269.867,321.067 269.600,321.600 269.600 C 322.133 269.600,322.400 269.333,322.400 268.800 C 322.400 268.267,322.667 268.000,323.200 268.000 C 323.733 268.000,324.000 267.733,324.000 267.200 C 324.000 266.667,324.267 266.400,324.800 266.400 C 325.333 266.400,325.600 266.133,325.600 265.600 C 325.600 265.148,325.867 264.800,326.213 264.800 C 326.549 264.800,326.943 264.485,327.086 264.100 C 327.230 263.715,327.674 263.165,328.074 262.877 C 328.493 262.576,328.800 261.856,328.800 261.177 C 328.800 260.267,328.981 260.000,329.600 260.000 C 330.133 260.000,330.400 259.733,330.400 259.200 C 330.400 258.748,330.667 258.400,331.013 258.400 C 331.349 258.400,331.743 258.085,331.886 257.700 C 332.030 257.315,332.474 256.765,332.874 256.477 C 333.293 256.176,333.600 255.456,333.600 254.777 C 333.600 253.867,333.781 253.600,334.400 253.600 C 334.917 253.600,335.200 253.333,335.200 252.847 C 335.200 252.430,335.557 252.000,336.000 251.884 C 336.613 251.724,336.800 251.338,336.800 250.237 C 336.800 249.067,336.948 248.800,337.600 248.800 C 338.097 248.800,338.400 248.533,338.400 248.096 C 338.400 247.709,338.760 247.168,339.200 246.893 C 339.699 246.581,340.000 245.960,340.000 245.243 C 340.000 244.430,340.234 244.032,340.800 243.884 C 341.413 243.724,341.600 243.338,341.600 242.237 C 341.600 241.067,341.748 240.800,342.400 240.800 C 343.022 240.800,343.200 240.533,343.200 239.603 C 343.200 238.840,343.490 238.226,344.000 237.907 C 344.440 237.632,344.800 237.029,344.800 236.566 C 344.800 236.103,345.160 235.398,345.600 235.000 C 346.040 234.602,346.400 233.882,346.400 233.400 C 346.400 232.918,346.760 232.198,347.200 231.800 C 347.727 231.323,348.000 230.568,348.000 229.585 C 348.000 228.430,348.180 228.046,348.800 227.884 C 349.406 227.725,349.600 227.338,349.600 226.284 C 349.600 225.230,349.794 224.843,350.400 224.684 C 351.013 224.524,351.200 224.138,351.200 223.037 C 351.200 222.133,351.497 221.303,352.000 220.800 C 352.516 220.284,352.800 219.467,352.800 218.496 C 352.800 217.426,353.030 216.849,353.600 216.493 C 354.218 216.107,354.400 215.560,354.400 214.093 C 354.400 212.626,354.582 212.079,355.200 211.693 C 355.826 211.302,356.000 210.760,356.000 209.197 C 356.000 207.733,356.214 206.986,356.800 206.400 C 357.415 205.785,357.600 205.067,357.600 203.289 C 357.600 201.473,357.771 200.831,358.400 200.293 C 359.065 199.723,359.200 199.113,359.200 196.666 C 359.200 194.232,359.338 193.599,360.000 193.000 C 360.698 192.369,360.800 191.768,360.800 188.301 C 360.800 184.932,360.922 184.171,361.600 183.309 C 362.377 182.321,362.400 181.686,362.400 160.946 C 362.400 140.133,362.380 139.580,361.600 138.800 C 360.902 138.102,360.800 137.467,360.800 133.803 C 360.800 130.040,360.717 129.555,360.000 129.107 C 359.314 128.679,359.200 128.174,359.200 125.566 C 359.200 123.032,359.066 122.403,358.400 121.800 C 357.771 121.231,357.600 120.568,357.600 118.701 C 357.600 116.662,357.487 116.295,356.800 116.116 C 356.114 115.937,356.000 115.570,356.000 113.553 C 356.000 111.733,355.819 111.019,355.200 110.400 C 354.682 109.882,354.400 109.067,354.400 108.088 C 354.400 107.035,354.157 106.402,353.600 106.000 C 353.010 105.575,352.800 104.965,352.800 103.674 C 352.800 102.262,352.646 101.885,352.000 101.716 C 351.373 101.552,351.200 101.170,351.200 99.953 C 351.200 98.933,350.925 98.125,350.400 97.600 C 349.897 97.097,349.600 96.267,349.600 95.363 C 349.600 94.262,349.413 93.876,348.800 93.716 C 348.194 93.557,348.000 93.170,348.000 92.116 C 348.000 91.062,347.806 90.675,347.200 90.516 C 346.594 90.357,346.400 89.970,346.400 88.916 C 346.400 87.862,346.206 87.475,345.600 87.316 C 344.994 87.157,344.800 86.770,344.800 85.716 C 344.800 84.662,344.606 84.275,344.000 84.116 C 343.434 83.968,343.200 83.570,343.200 82.757 C 343.200 82.040,342.899 81.419,342.400 81.107 C 341.960 80.832,341.600 80.291,341.600 79.904 C 341.600 79.517,341.240 78.840,340.800 78.400 C 340.360 77.960,340.000 77.313,340.000 76.963 C 340.000 76.612,339.640 76.231,339.200 76.116 C 338.634 75.968,338.400 75.570,338.400 74.757 C 338.400 74.040,338.099 73.419,337.600 73.107 C 337.160 72.832,336.800 72.291,336.800 71.904 C 336.800 71.467,336.497 71.200,336.000 71.200 C 335.378 71.200,335.200 70.933,335.200 70.003 C 335.200 69.240,334.910 68.626,334.400 68.307 C 333.960 68.032,333.600 67.491,333.600 67.104 C 333.600 66.667,333.297 66.400,332.800 66.400 C 332.267 66.400,332.000 66.133,332.000 65.600 C 332.000 65.160,331.640 64.440,331.200 64.000 C 330.760 63.560,330.400 62.913,330.400 62.563 C 330.400 62.212,330.040 61.831,329.600 61.716 C 329.157 61.600,328.800 61.170,328.800 60.753 C 328.800 60.267,328.517 60.000,328.000 60.000 C 327.467 60.000,327.200 59.733,327.200 59.200 C 327.200 58.667,326.933 58.400,326.400 58.400 C 325.867 58.400,325.600 58.133,325.600 57.600 C 325.600 57.160,325.240 56.440,324.800 56.000 C 324.360 55.560,324.000 55.030,324.000 54.823 C 324.000 54.615,323.673 54.210,323.274 53.923 C 322.874 53.635,322.430 53.085,322.286 52.700 C 322.143 52.315,321.770 52.000,321.459 52.000 C 321.148 52.000,320.799 51.640,320.684 51.200 C 320.569 50.760,320.209 50.400,319.884 50.400 C 319.559 50.400,319.199 50.040,319.084 49.600 C 318.969 49.160,318.609 48.800,318.284 48.800 C 317.959 48.800,317.599 48.440,317.484 48.000 C 317.203 46.927,316.000 46.956,316.000 48.036 M285.605 94.100 C 286.522 95.035,288.284 97.060,289.522 98.600 C 290.759 100.140,292.048 101.708,292.386 102.084 C 292.724 102.461,293.307 103.181,293.683 103.684 C 294.059 104.188,294.824 105.166,295.383 105.858 C 295.942 106.550,296.400 107.230,296.400 107.370 C 296.400 107.509,297.120 108.534,298.000 109.648 C 298.880 110.761,299.600 111.904,299.600 112.187 C 299.600 112.470,299.889 112.942,300.242 113.235 C 300.595 113.527,301.054 114.135,301.262 114.584 C 301.471 115.033,302.078 116.120,302.613 117.000 C 303.147 117.880,303.787 119.050,304.035 119.600 C 304.283 120.150,304.648 120.870,304.846 121.200 C 305.044 121.530,305.404 122.250,305.646 122.800 C 305.888 123.350,306.248 124.070,306.446 124.400 C 306.644 124.730,307.002 125.450,307.242 126.000 C 307.848 127.389,308.957 129.859,309.957 132.044 C 310.420 133.058,310.800 134.184,310.800 134.545 C 310.800 134.907,311.160 135.875,311.600 136.696 C 312.040 137.516,312.400 138.596,312.400 139.096 C 312.400 139.595,312.760 140.675,313.200 141.496 C 313.640 142.316,314.000 143.492,314.000 144.107 C 314.000 144.722,314.276 145.886,314.613 146.693 C 314.950 147.499,315.397 149.249,315.606 150.580 C 315.815 151.911,316.260 153.984,316.593 155.187 C 316.927 156.390,317.200 158.215,317.200 159.243 C 317.200 160.271,317.498 162.617,317.862 164.456 C 318.677 168.570,318.791 184.995,318.028 188.200 C 317.766 189.300,317.389 192.046,317.191 194.301 C 316.993 196.557,316.554 199.219,316.215 200.215 C 315.877 201.212,315.600 202.561,315.600 203.212 C 315.600 203.864,315.256 205.433,314.835 206.698 C 314.414 207.964,313.949 209.711,313.802 210.580 C 313.654 211.448,313.279 212.523,312.967 212.969 C 312.655 213.414,312.400 214.236,312.400 214.795 C 312.400 215.354,312.040 216.484,311.600 217.304 C 311.160 218.125,310.800 219.063,310.800 219.388 C 310.800 219.999,309.681 222.698,308.358 225.279 C 307.941 226.093,307.600 227.014,307.600 227.325 C 307.600 227.637,307.240 228.350,306.800 228.909 C 306.360 229.469,306.000 230.189,306.000 230.509 C 306.000 230.830,305.640 231.550,305.200 232.109 C 304.760 232.669,304.400 233.400,304.400 233.735 C 304.400 234.069,304.143 234.599,303.830 234.913 C 303.516 235.227,302.976 236.095,302.631 236.842 C 302.285 237.589,301.647 238.740,301.213 239.400 C 300.779 240.060,300.124 241.140,299.758 241.800 C 299.391 242.460,298.846 243.144,298.546 243.320 C 298.246 243.496,298.000 243.804,298.000 244.006 C 298.000 244.207,297.454 245.143,296.787 246.086 C 296.120 247.029,295.269 248.250,294.897 248.800 C 294.524 249.350,293.990 249.944,293.710 250.120 C 293.429 250.296,293.200 250.630,293.200 250.862 C 293.200 251.987,282.590 263.362,276.780 268.467 C 273.420 271.419,266.010 277.200,265.587 277.200 C 265.406 277.200,265.014 277.425,264.718 277.700 C 263.816 278.536,261.666 279.992,260.706 280.416 C 260.208 280.636,258.990 281.336,258.000 281.972 C 255.171 283.789,242.525 290.000,241.655 290.000 C 241.403 290.000,240.525 290.360,239.704 290.800 C 238.884 291.240,237.914 291.600,237.550 291.600 C 237.185 291.600,236.103 291.956,235.144 292.391 C 234.185 292.826,232.986 293.186,232.480 293.191 C 231.974 293.196,231.014 293.482,230.347 293.828 C 229.679 294.173,228.029 294.633,226.680 294.850 C 225.331 295.068,224.030 295.409,223.788 295.610 C 223.546 295.810,221.830 296.147,219.974 296.358 C 218.118 296.570,216.060 296.956,215.400 297.216 C 211.644 298.700,181.887 298.546,177.036 297.019 C 175.956 296.678,174.382 296.400,173.538 296.400 C 172.694 296.400,170.967 296.057,169.702 295.637 C 168.436 295.217,166.659 294.769,165.753 294.640 C 164.847 294.512,163.587 294.137,162.953 293.806 C 162.319 293.476,161.350 293.198,160.800 293.189 C 160.250 293.180,159.080 292.825,158.200 292.400 C 157.320 291.975,156.240 291.620,155.800 291.611 C 155.360 291.602,154.460 291.237,153.800 290.800 C 153.140 290.363,152.276 290.004,151.879 290.003 C 151.483 290.001,150.493 289.662,149.679 289.249 C 148.364 288.581,147.458 288.161,143.600 286.429 C 143.050 286.183,141.340 285.267,139.800 284.395 C 138.260 283.523,136.446 282.548,135.768 282.228 C 135.091 281.908,134.304 281.366,134.019 281.023 C 133.735 280.680,133.309 280.400,133.073 280.400 C 132.670 280.400,129.640 278.491,129.200 277.961 C 129.090 277.828,128.556 277.485,128.013 277.199 C 123.840 274.998,110.000 262.806,110.000 261.331 C 110.000 260.984,112.278 258.517,115.063 255.850 C 117.848 253.182,122.775 248.390,126.013 245.200 C 140.218 231.204,162.492 209.404,164.151 207.873 C 166.452 205.748,182.088 190.575,190.607 182.200 C 205.629 167.430,233.006 140.701,242.600 131.438 C 249.327 124.943,263.411 111.194,273.473 101.300 C 283.383 91.555,283.211 91.658,285.605 94.100 M268.800 308.400 C 268.800 308.620,268.530 308.800,268.200 308.800 C 267.870 308.800,267.600 308.620,267.600 308.400 C 267.600 308.180,267.870 308.000,268.200 308.000 C 268.530 308.000,268.800 308.180,268.800 308.400 M265.280 310.080 C 264.907 310.453,264.693 310.453,264.320 310.080 C 263.947 309.707,264.053 309.600,264.800 309.600 C 265.547 309.600,265.653 309.707,265.280 310.080 M261.200 311.600 C 261.200 311.820,260.930 312.000,260.600 312.000 C 260.270 312.000,260.000 311.820,260.000 311.600 C 260.000 311.380,260.270 311.200,260.600 311.200 C 260.930 311.200,261.200 311.380,261.200 311.600 M257.600 313.200 C 257.600 313.420,257.341 313.600,257.024 313.600 C 256.707 313.600,256.336 313.420,256.200 313.200 C 256.064 312.980,256.323 312.800,256.776 312.800 C 257.229 312.800,257.600 312.980,257.600 313.200 M252.800 315.000 C 252.526 315.330,252.144 315.600,251.951 315.600 C 251.758 315.600,251.600 315.330,251.600 315.000 C 251.600 314.655,251.961 314.400,252.449 314.400 C 253.158 314.400,253.216 314.499,252.800 315.000 M247.778 316.514 C 247.669 316.797,247.238 317.029,246.819 317.029 C 246.401 317.029,246.137 316.903,246.232 316.748 C 246.327 316.594,246.179 316.377,245.902 316.266 C 245.626 316.154,245.979 316.049,246.687 316.032 C 247.581 316.010,247.914 316.157,247.778 316.514 M235.601 319.781 C 234.985 320.122,234.435 320.195,234.164 319.970 C 233.923 319.771,233.579 319.740,233.399 319.903 C 233.219 320.067,233.201 319.975,233.359 319.700 C 233.518 319.425,234.312 319.206,235.124 319.214 C 236.597 319.228,236.598 319.230,235.601 319.781 M173.817 321.172 C 173.691 321.377,173.099 321.456,172.503 321.348 C 170.863 321.051,170.888 320.800,172.557 320.800 C 173.377 320.800,173.944 320.968,173.817 321.172 M228.210 321.298 C 227.848 321.501,227.314 321.576,227.024 321.465 C 226.735 321.354,226.269 321.473,225.990 321.731 C 225.602 322.090,225.545 322.089,225.746 321.730 C 225.895 321.466,225.702 321.178,225.305 321.071 C 224.917 320.967,225.561 320.892,226.735 320.906 C 228.256 320.923,228.680 321.035,228.210 321.298 M185.656 322.757 C 185.159 323.072,183.600 322.917,183.600 322.553 C 183.600 322.469,184.185 322.403,184.900 322.406 C 185.784 322.410,186.026 322.523,185.656 322.757 M216.176 322.838 C 216.027 323.080,215.391 323.201,214.762 323.109 C 214.134 323.017,213.564 323.109,213.495 323.315 C 213.427 323.520,213.130 323.398,212.836 323.044 C 212.357 322.466,212.515 322.400,214.375 322.400 C 215.776 322.400,216.359 322.542,216.176 322.838 M18.291 345.600 C 17.523 346.204,16.668 346.400,14.799 346.400 C 12.662 346.400,12.297 346.509,12.116 347.200 C 11.957 347.806,11.570 348.000,10.516 348.000 C 9.462 348.000,9.075 348.194,8.916 348.800 C 8.801 349.240,8.390 349.600,8.002 349.600 C 7.615 349.600,7.058 349.889,6.765 350.242 C 6.473 350.595,5.816 351.042,5.306 351.236 C 4.797 351.429,4.263 351.892,4.120 352.263 C 3.978 352.635,3.532 353.268,3.131 353.669 C 2.729 354.071,2.400 354.739,2.400 355.153 C 2.400 355.570,2.043 356.000,1.600 356.116 C 0.987 356.276,0.800 356.662,0.800 357.763 C 0.800 358.553,0.620 359.200,0.400 359.200 C 0.140 359.200,0.000 364.800,0.000 375.200 C 0.000 385.600,0.140 391.200,0.400 391.200 C 0.620 391.200,0.800 391.847,0.800 392.637 C 0.800 393.738,0.987 394.124,1.600 394.284 C 2.206 394.443,2.400 394.830,2.400 395.884 C 2.400 396.938,2.594 397.325,3.200 397.484 C 3.643 397.600,4.000 398.030,4.000 398.447 C 4.000 398.933,4.283 399.200,4.800 399.200 C 5.333 399.200,5.600 399.467,5.600 400.000 C 5.600 400.533,5.867 400.800,6.400 400.800 C 6.933 400.800,7.200 401.067,7.200 401.600 C 7.200 402.133,7.467 402.400,8.000 402.400 C 8.533 402.400,8.800 402.667,8.800 403.200 C 8.800 403.717,9.067 404.000,9.553 404.000 C 9.970 404.000,10.400 404.357,10.516 404.800 C 10.631 405.240,11.012 405.600,11.363 405.600 C 11.713 405.600,12.000 405.876,12.000 406.213 C 12.000 406.549,12.315 406.938,12.700 407.077 C 13.085 407.215,13.722 407.659,14.116 408.064 C 14.509 408.469,15.274 408.800,15.816 408.800 C 16.533 408.800,16.800 409.017,16.800 409.600 C 16.800 410.133,17.067 410.400,17.600 410.400 C 18.133 410.400,18.400 410.667,18.400 411.200 C 18.400 411.717,18.667 412.000,19.153 412.000 C 19.570 412.000,20.000 412.357,20.116 412.800 C 20.321 413.584,20.128 413.600,10.163 413.600 L 0.000 413.600 0.000 425.600 C 0.000 433.333,0.142 437.600,0.400 437.600 C 0.622 437.600,0.800 438.667,0.800 440.000 C 0.800 441.867,0.978 442.578,1.600 443.200 C 2.040 443.640,2.400 444.360,2.400 444.800 C 2.400 445.318,2.667 445.600,3.155 445.600 C 3.702 445.600,3.984 445.987,4.174 447.000 C 4.331 447.838,4.670 448.400,5.018 448.400 C 5.338 448.400,5.600 448.567,5.600 448.771 C 5.600 449.478,6.861 450.400,7.829 450.400 C 8.533 450.400,8.800 450.620,8.800 451.200 C 8.800 451.717,9.067 452.000,9.553 452.000 C 9.970 452.000,10.400 452.357,10.516 452.800 C 10.676 453.413,11.062 453.600,12.163 453.600 C 12.953 453.600,13.600 453.780,13.600 454.000 C 13.600 454.258,17.867 454.400,25.600 454.400 C 33.333 454.400,37.600 454.258,37.600 454.000 C 37.600 453.780,38.247 453.600,39.037 453.600 C 40.138 453.600,40.524 453.413,40.684 452.800 C 40.800 452.357,41.230 452.000,41.647 452.000 C 42.133 452.000,42.400 451.717,42.400 451.200 C 42.400 450.595,42.668 450.399,43.500 450.396 C 44.945 450.390,47.200 448.112,47.200 446.657 C 47.200 445.867,47.402 445.600,48.000 445.600 C 48.573 445.600,48.800 445.333,48.800 444.662 C 48.800 444.146,49.160 443.398,49.600 443.000 C 50.252 442.410,50.400 441.768,50.400 439.538 C 50.400 438.032,50.551 436.800,50.736 436.800 C 51.720 436.800,52.000 434.373,52.000 425.841 C 52.000 417.351,51.680 414.400,50.761 414.400 C 50.562 414.400,50.400 412.853,50.400 410.963 C 50.400 407.862,50.322 407.505,49.600 407.316 C 48.973 407.152,48.800 406.770,48.800 405.553 C 48.800 404.533,48.525 403.725,48.000 403.200 C 47.560 402.760,47.200 402.113,47.200 401.763 C 47.200 401.412,46.840 401.031,46.400 400.916 C 45.957 400.800,45.600 400.370,45.600 399.953 C 45.600 399.467,45.317 399.200,44.800 399.200 C 44.347 399.200,44.000 398.933,44.000 398.585 C 44.000 397.823,40.534 394.400,39.763 394.400 C 39.453 394.400,39.200 394.040,39.200 393.600 C 39.200 393.067,38.933 392.800,38.400 392.800 C 37.867 392.800,37.600 392.533,37.600 392.000 C 37.600 391.467,37.333 391.200,36.800 391.200 C 36.267 391.200,36.000 390.933,36.000 390.400 C 36.000 389.883,35.733 389.600,35.247 389.600 C 34.830 389.600,34.400 389.243,34.284 388.800 C 34.159 388.321,33.738 388.000,33.237 388.000 C 32.771 388.000,32.400 387.742,32.400 387.418 C 32.400 387.070,31.838 386.731,31.000 386.574 C 29.987 386.384,29.600 386.102,29.600 385.555 C 29.600 385.067,29.318 384.800,28.800 384.800 C 28.348 384.800,28.000 384.533,28.000 384.187 C 28.000 383.851,27.712 383.464,27.360 383.329 C 26.536 383.013,24.987 381.464,24.671 380.640 C 24.536 380.288,24.174 380.000,23.867 380.000 C 23.468 380.000,23.250 379.254,23.099 377.381 C 22.972 375.789,22.636 374.482,22.245 374.049 C 21.421 373.139,21.433 372.897,22.400 371.000 C 22.840 370.137,23.200 368.929,23.200 368.315 C 23.200 366.945,24.389 366.789,25.600 368.000 C 26.332 368.732,26.400 369.333,26.400 375.104 C 26.400 381.106,26.441 381.433,27.253 381.941 C 28.239 382.556,47.036 382.631,47.778 382.023 C 48.010 381.832,48.650 381.614,49.200 381.538 L 50.200 381.400 50.200 374.341 C 50.200 368.179,50.111 367.184,49.500 366.510 C 48.967 365.921,48.799 365.029,48.795 362.769 C 48.788 359.269,48.511 358.000,47.753 358.000 C 47.407 358.000,47.200 357.557,47.200 356.816 C 47.200 356.164,46.869 355.309,46.464 354.916 C 46.059 354.522,45.615 353.885,45.477 353.500 C 45.338 353.115,44.949 352.800,44.613 352.800 C 44.276 352.800,44.000 352.524,44.000 352.187 C 44.000 351.851,43.685 351.457,43.300 351.314 C 42.915 351.170,42.365 350.726,42.077 350.326 C 41.784 349.919,41.058 349.600,40.424 349.600 C 39.630 349.600,39.231 349.362,39.084 348.800 C 38.925 348.194,38.538 348.000,37.484 348.000 C 36.430 348.000,36.043 347.806,35.884 347.200 C 35.699 346.491,35.338 346.400,32.726 346.400 C 30.273 346.400,29.663 346.266,29.093 345.600 C 28.482 344.887,27.913 344.800,23.858 344.800 C 19.914 344.800,19.173 344.906,18.291 345.600 M55.200 400.800 L 55.200 453.607 75.900 453.504 L 96.600 453.400 96.706 442.135 C 96.838 428.177,97.807 429.600,88.171 429.600 L 80.800 429.600 80.800 420.000 L 80.800 410.400 87.200 410.400 L 93.600 410.400 93.600 399.200 L 93.600 388.000 87.200 388.000 L 80.800 388.000 80.800 380.000 L 80.800 372.000 87.551 372.000 C 92.783 372.000,94.405 371.877,94.757 371.451 C 95.080 371.063,95.182 367.592,95.106 359.551 L 95.000 348.200 75.100 348.096 L 55.200 347.993 55.200 400.800 M98.880 348.480 C 98.183 349.177,98.183 452.423,98.880 453.120 C 99.233 453.473,102.631 453.600,111.680 453.600 L 124.000 453.600 124.000 440.800 L 124.000 428.000 124.800 428.800 C 125.467 429.467,125.600 430.133,125.600 432.800 C 125.600 435.467,125.733 436.133,126.400 436.800 C 127.067 437.467,127.200 438.133,127.200 440.800 C 127.200 443.467,127.333 444.133,128.000 444.800 C 128.667 445.467,128.800 446.133,128.800 448.800 C 128.800 454.084,126.188 453.600,154.720 453.600 C 173.102 453.600,179.157 453.483,179.520 453.120 C 179.863 452.777,180.000 450.258,180.000 444.320 L 180.000 436.000 182.355 436.000 L 184.709 436.000 184.862 441.566 C 184.988 446.138,185.139 447.269,185.707 447.898 C 186.207 448.450,186.400 449.352,186.400 451.137 L 186.400 453.611 199.100 453.506 L 211.800 453.400 211.800 449.541 C 211.800 446.493,211.659 445.526,211.130 444.941 C 210.581 444.334,210.437 443.128,210.330 438.267 C 210.221 433.278,210.093 432.256,209.530 431.845 C 208.965 431.432,208.840 430.401,208.730 425.245 C 208.620 420.089,208.495 419.057,207.930 418.645 C 207.365 418.233,207.240 417.206,207.130 412.119 C 207.021 407.050,206.888 405.958,206.300 405.309 C 205.703 404.651,205.600 403.709,205.600 398.922 C 205.600 393.988,205.507 393.189,204.831 392.330 C 204.167 391.486,204.044 390.544,203.931 385.443 C 203.821 380.476,203.693 379.456,203.130 379.045 C 202.565 378.632,202.440 377.601,202.330 372.445 C 202.218 367.180,202.103 366.263,201.500 365.823 C 200.889 365.377,200.800 364.574,200.800 359.510 C 200.800 354.314,200.716 353.602,200.000 352.691 C 199.463 352.008,199.200 351.068,199.200 349.833 L 199.200 347.992 181.700 348.096 L 164.200 348.200 164.086 352.766 C 163.992 356.532,163.852 357.420,163.286 357.833 C 162.693 358.266,162.583 359.270,162.473 365.243 C 162.364 371.160,162.249 372.222,161.673 372.643 C 161.095 373.064,160.982 374.132,160.874 380.167 C 160.805 384.035,160.609 387.200,160.438 387.200 C 159.572 387.200,159.200 389.627,159.200 395.287 C 159.200 400.488,159.102 401.445,158.500 402.109 C 157.903 402.768,157.781 403.884,157.673 409.717 C 157.564 415.564,157.448 416.623,156.873 417.043 C 156.297 417.463,156.181 418.532,156.065 424.449 C 155.950 430.332,155.831 431.435,155.265 431.848 C 154.717 432.248,154.577 433.247,154.469 437.521 C 154.346 442.411,154.294 442.697,153.569 442.508 C 152.900 442.333,152.800 441.932,152.800 439.415 C 152.800 437.032,152.659 436.397,152.000 435.800 C 151.348 435.210,151.200 434.568,151.200 432.338 C 151.200 430.133,151.044 429.444,150.400 428.800 C 149.778 428.178,149.600 427.467,149.600 425.600 C 149.600 423.733,149.422 423.022,148.800 422.400 C 148.164 421.764,148.000 421.067,148.000 418.996 C 148.000 416.887,147.848 416.262,147.200 415.707 C 146.546 415.147,146.400 414.527,146.400 412.314 C 146.400 410.040,146.272 409.527,145.600 409.107 C 144.928 408.688,144.800 408.174,144.800 405.907 C 144.800 403.640,144.672 403.127,144.000 402.707 C 143.332 402.290,143.200 401.774,143.200 399.584 C 143.200 398.076,142.996 396.756,142.720 396.480 C 142.347 396.107,142.347 395.893,142.720 395.520 C 142.998 395.242,143.200 393.913,143.200 392.367 C 143.200 390.030,143.301 389.667,144.000 389.484 C 144.690 389.304,144.800 388.938,144.800 386.821 C 144.800 384.919,144.980 384.173,145.600 383.508 C 146.183 382.882,146.400 382.096,146.400 380.613 C 146.400 379.073,146.595 378.411,147.200 377.893 C 147.842 377.343,148.000 376.713,148.000 374.700 C 148.000 372.626,148.138 372.106,148.800 371.693 C 149.452 371.286,149.600 370.760,149.600 368.859 C 149.600 367.032,149.774 366.366,150.400 365.800 C 151.010 365.248,151.200 364.568,151.200 362.938 C 151.200 361.333,151.400 360.600,152.000 360.000 C 152.615 359.385,152.800 358.667,152.800 356.896 C 152.800 355.026,152.950 354.498,153.600 354.093 C 154.276 353.671,154.400 353.160,154.400 350.797 L 154.400 348.000 142.400 348.000 L 130.400 348.000 130.400 349.938 C 130.400 351.368,130.190 352.066,129.600 352.600 C 128.941 353.197,128.800 353.832,128.800 356.215 C 128.800 358.770,128.707 359.131,128.000 359.316 C 127.290 359.502,127.200 359.862,127.200 362.516 C 127.200 365.170,127.110 365.530,126.400 365.716 C 125.691 365.901,125.600 366.262,125.600 368.866 C 125.600 371.374,125.482 371.881,124.800 372.307 C 124.006 372.803,124.000 372.707,124.000 360.403 L 124.000 348.000 111.680 348.000 C 102.631 348.000,99.233 348.127,98.880 348.480 M205.741 348.609 C 205.228 349.945,205.807 357.123,206.488 357.876 C 207.045 358.492,207.169 359.825,207.275 366.337 C 207.385 373.147,207.483 374.127,208.100 374.577 C 208.722 375.031,208.800 375.892,208.800 382.284 C 208.800 389.024,209.170 392.000,210.009 392.000 C 210.191 392.000,210.398 395.615,210.470 400.033 C 210.585 407.130,210.682 408.125,211.300 408.577 C 211.920 409.030,212.000 409.883,212.000 416.084 C 212.000 422.632,212.377 425.600,213.209 425.600 C 213.391 425.600,213.598 429.215,213.670 433.633 C 213.784 440.674,213.885 441.728,214.488 442.168 C 215.069 442.592,215.193 443.507,215.288 448.035 L 215.400 453.400 230.400 453.491 L 245.400 453.582 246.200 452.491 C 246.903 451.533,247.016 450.646,247.129 445.200 C 247.236 440.083,247.376 438.871,247.929 438.259 C 248.487 437.643,248.621 436.415,248.727 430.959 C 248.798 427.274,249.017 424.400,249.226 424.400 C 249.430 424.400,249.854 423.815,250.166 423.100 C 250.479 422.385,250.749 422.093,250.767 422.451 C 250.785 422.809,251.070 423.326,251.400 423.600 C 251.880 423.998,252.000 425.197,252.000 429.595 C 252.000 434.486,252.088 435.204,252.800 436.109 C 253.494 436.992,253.600 437.732,253.600 441.709 C 253.600 445.686,253.706 446.427,254.400 447.309 C 255.016 448.093,255.200 448.932,255.200 450.963 L 255.200 453.600 270.400 453.600 L 285.600 453.600 285.600 452.731 C 285.600 452.254,285.915 451.515,286.300 451.091 C 286.907 450.421,287.017 449.273,287.124 442.485 C 287.233 435.686,287.338 434.587,287.924 434.159 C 288.512 433.730,288.616 432.621,288.723 425.633 C 288.791 421.215,288.999 417.600,289.184 417.600 C 290.023 417.600,290.400 414.649,290.400 408.084 C 290.400 401.883,290.480 401.030,291.100 400.577 C 291.718 400.126,291.815 399.134,291.931 392.133 C 292.042 385.400,292.163 384.088,292.731 383.459 C 293.298 382.830,293.419 381.530,293.524 374.885 C 293.633 368.086,293.738 366.987,294.324 366.559 C 294.917 366.126,295.016 364.957,295.127 357.033 L 295.255 348.000 283.227 348.000 L 271.200 348.000 271.200 350.456 C 271.200 352.334,271.035 353.032,270.500 353.423 C 269.889 353.869,269.784 354.817,269.672 360.866 C 269.565 366.678,269.436 367.918,268.872 368.540 C 268.300 369.172,268.182 370.453,268.079 377.141 C 267.976 383.809,267.846 385.231,267.217 386.524 L 266.477 388.047 266.339 380.665 C 266.222 374.429,266.095 373.167,265.525 372.538 C 264.934 371.885,264.834 370.457,264.725 361.063 C 264.612 351.394,264.531 350.284,263.900 349.823 C 263.515 349.542,263.200 349.017,263.200 348.656 C 263.200 348.062,261.996 348.000,250.400 348.000 L 237.600 348.000 237.600 350.669 C 237.600 352.649,237.420 353.536,236.900 354.110 C 236.298 354.774,236.182 355.913,236.068 362.241 C 235.996 366.288,235.800 369.600,235.632 369.600 C 234.725 369.600,234.400 372.074,234.400 378.970 C 234.400 384.999,234.293 386.391,233.800 386.800 C 233.470 387.074,233.166 387.681,233.123 388.149 C 233.081 388.617,232.946 384.834,232.823 379.741 C 232.629 371.684,232.509 370.382,231.900 369.710 C 231.273 369.017,231.200 367.900,231.200 358.949 C 231.200 351.713,231.068 348.828,230.720 348.480 C 229.921 347.681,206.050 347.804,205.741 348.609 M301.600 351.856 C 301.600 355.067,301.483 355.797,300.900 356.223 C 300.289 356.669,300.184 357.616,300.073 363.643 C 299.964 369.560,299.849 370.622,299.273 371.043 C 298.695 371.464,298.582 372.532,298.474 378.567 C 298.405 382.435,298.209 385.600,298.038 385.600 C 297.172 385.600,296.800 388.027,296.800 393.687 C 296.800 398.888,296.702 399.845,296.100 400.509 C 295.503 401.168,295.381 402.284,295.273 408.117 C 295.164 413.964,295.048 415.023,294.473 415.443 C 293.897 415.863,293.782 416.926,293.673 422.843 C 293.564 428.760,293.449 429.822,292.873 430.243 C 292.295 430.664,292.182 431.732,292.074 437.767 C 292.005 441.635,291.802 444.800,291.623 444.800 C 290.881 444.800,290.370 447.229,290.482 450.227 L 290.600 453.400 303.233 453.506 C 319.010 453.637,317.356 454.742,317.523 443.959 L 317.647 436.000 319.979 436.000 L 322.311 436.000 322.460 443.163 C 322.586 449.271,322.711 450.438,323.304 451.094 C 323.687 451.517,324.000 452.253,324.000 452.729 L 324.000 453.595 347.129 453.593 C 366.381 453.592,370.388 453.497,371.029 453.028 C 371.758 452.496,371.806 451.768,371.916 439.650 C 372.031 426.965,372.040 426.842,372.816 427.506 C 373.451 428.051,373.600 428.691,373.600 430.886 C 373.600 433.160,373.728 433.673,374.400 434.093 C 375.072 434.512,375.200 435.026,375.200 437.293 C 375.200 439.560,375.328 440.073,376.000 440.493 C 376.682 440.919,376.800 441.426,376.800 443.934 C 376.800 446.518,376.895 446.900,377.584 447.080 C 378.263 447.257,378.383 447.696,378.484 450.342 L 378.600 453.400 389.300 453.507 L 400.000 453.613 400.000 400.807 L 400.000 348.000 390.000 348.000 L 380.000 348.000 380.000 363.363 C 380.000 378.528,379.990 378.722,379.200 378.516 C 378.498 378.332,378.400 377.970,378.400 375.557 C 378.400 373.240,378.274 372.728,377.600 372.307 C 376.974 371.916,376.799 371.371,376.795 369.804 C 376.788 367.235,376.449 366.000,375.753 366.000 C 375.340 366.000,375.200 365.356,375.200 363.462 C 375.200 361.432,375.040 360.779,374.400 360.200 C 373.779 359.638,373.600 358.968,373.600 357.200 C 373.600 355.432,373.421 354.762,372.800 354.200 C 372.180 353.639,372.000 352.968,372.000 351.218 C 372.000 347.869,372.477 348.000,360.320 348.000 L 349.600 348.000 349.588 398.100 C 349.579 435.659,349.462 448.000,349.122 447.400 C 348.873 446.960,348.532 446.508,348.364 446.395 C 348.197 446.282,348.002 443.433,347.930 440.062 C 347.818 434.781,347.703 433.863,347.100 433.423 C 346.488 432.976,346.400 432.172,346.400 427.056 C 346.400 421.733,346.327 421.127,345.600 420.400 C 344.874 419.674,344.800 419.067,344.800 413.854 C 344.800 408.714,344.716 408.001,344.000 407.091 C 343.287 406.184,343.200 405.468,343.200 400.491 C 343.200 395.588,343.106 394.789,342.431 393.930 C 341.767 393.086,341.644 392.144,341.531 387.043 C 341.419 381.972,341.301 381.061,340.700 380.623 C 340.088 380.176,340.000 379.372,340.000 374.256 C 340.000 369.007,339.920 368.320,339.229 367.629 C 338.550 366.950,338.443 366.146,338.329 360.870 C 338.221 355.847,338.087 354.757,337.500 354.109 C 336.980 353.536,336.800 352.649,336.800 350.669 L 336.800 348.000 319.200 348.000 L 301.600 348.000 301.600 351.856 M183.200 403.935 C 183.200 411.045,183.297 412.440,183.829 412.971 C 184.400 413.543,184.255 413.600,182.229 413.600 C 179.754 413.600,179.220 412.724,180.700 411.090 C 181.310 410.417,181.417 409.243,181.529 401.942 C 181.658 393.589,181.660 393.569,182.429 394.546 C 183.135 395.443,183.200 396.238,183.200 403.935 M320.355 398.145 C 320.592 398.432,320.814 401.782,320.882 406.120 L 321.000 413.601 319.300 413.600 L 317.600 413.600 317.600 411.731 C 317.600 410.513,317.844 409.594,318.300 409.090 C 318.891 408.439,319.024 407.308,319.153 401.859 C 319.252 397.728,319.422 395.806,319.626 396.526 C 319.801 397.145,320.129 397.874,320.355 398.145 M24.800 417.484 C 24.800 417.809,25.135 418.163,25.545 418.270 C 26.433 418.502,27.061 426.638,26.574 431.587 L 26.297 434.400 24.748 434.400 L 23.200 434.400 23.200 425.437 C 23.200 416.672,23.218 416.479,24.000 416.684 C 24.440 416.799,24.800 417.159,24.800 417.484 " stroke="none" fill="#040453" fill-rule="evenodd"></path><path id="path2" d="M190.400 25.028 C 183.028 25.965,176.890 27.102,172.000 28.438 C 168.961 29.268,159.915 32.303,157.800 33.202 C 156.700 33.669,155.440 34.204,155.000 34.390 C 153.334 35.094,144.937 39.287,143.515 40.125 C 137.355 43.756,135.111 45.234,130.556 48.660 C 119.258 57.154,107.467 70.001,100.614 81.281 C 92.622 94.435,87.451 107.495,84.808 121.200 C 84.405 123.290,83.971 125.270,83.843 125.600 C 82.202 129.828,82.204 159.241,83.845 164.526 C 83.969 164.926,84.402 166.996,84.806 169.126 C 85.865 174.706,87.872 182.084,89.032 184.660 C 89.345 185.354,89.606 186.164,89.614 186.460 C 89.621 186.757,89.975 187.720,90.400 188.600 C 90.825 189.480,91.179 190.346,91.186 190.525 C 91.223 191.395,96.910 202.895,99.005 206.335 C 105.468 216.948,115.277 229.081,116.965 228.550 C 117.424 228.406,120.931 225.208,124.759 221.444 C 128.586 217.680,133.278 213.070,135.185 211.200 C 140.858 205.636,166.038 181.087,168.200 179.012 C 170.654 176.656,194.431 153.488,199.206 148.800 C 202.662 145.406,212.227 136.058,226.605 122.024 C 230.787 117.941,240.316 108.660,247.779 101.400 C 255.241 94.140,265.319 84.306,270.174 79.546 C 275.028 74.787,281.205 68.775,283.900 66.186 C 286.595 63.598,288.800 61.178,288.800 60.809 C 288.800 59.882,281.873 53.258,277.209 49.727 C 275.994 48.807,274.550 47.711,274.000 47.291 C 272.071 45.817,268.978 43.742,266.677 42.378 C 265.399 41.620,263.689 40.605,262.877 40.121 C 260.545 38.734,250.072 33.600,249.574 33.600 C 249.326 33.600,248.646 33.332,248.062 33.005 C 244.666 31.104,230.669 27.185,223.000 25.989 C 212.199 24.304,199.132 23.919,190.400 25.028 M215.000 25.575 C 218.080 25.832,221.410 26.227,222.400 26.454 C 223.390 26.680,225.550 27.093,227.200 27.371 C 228.850 27.649,231.061 28.174,232.114 28.538 C 233.167 28.902,234.452 29.200,234.970 29.200 C 235.489 29.200,236.697 29.556,237.656 29.991 C 238.615 30.426,239.806 30.786,240.301 30.791 C 240.797 30.796,241.875 31.160,242.696 31.600 C 243.516 32.040,244.506 32.400,244.896 32.400 C 245.285 32.400,246.275 32.760,247.096 33.200 C 247.916 33.640,248.825 34.000,249.115 34.000 C 249.405 34.000,250.307 34.338,251.121 34.751 C 252.611 35.508,255.688 36.940,256.800 37.393 C 257.130 37.528,258.120 38.078,259.000 38.616 C 259.880 39.154,261.230 39.886,262.000 40.242 C 262.770 40.598,263.490 41.022,263.600 41.183 C 263.812 41.495,265.360 42.370,267.500 43.391 C 268.215 43.732,268.800 44.159,268.800 44.341 C 268.800 44.523,269.257 44.880,269.815 45.134 C 270.373 45.388,271.048 45.787,271.315 46.021 C 271.582 46.254,273.150 47.441,274.800 48.658 C 280.720 53.024,288.000 59.677,288.000 60.719 C 288.000 61.056,284.135 65.127,279.412 69.766 C 268.597 80.386,254.730 93.919,249.000 99.444 C 240.030 108.093,211.343 136.101,196.399 150.800 C 188.553 158.518,172.820 173.778,170.551 175.873 C 168.959 177.342,149.686 196.200,132.403 213.200 C 116.063 229.272,116.820 228.655,115.372 227.093 C 112.667 224.173,108.668 219.351,106.508 216.403 C 105.137 214.531,103.742 212.715,103.408 212.366 C 103.073 212.018,102.800 211.587,102.800 211.408 C 102.800 211.229,102.128 210.074,101.306 208.841 C 99.675 206.395,98.789 204.873,97.876 202.949 C 97.549 202.261,97.083 201.575,96.841 201.425 C 96.598 201.275,96.396 200.848,96.391 200.476 C 96.386 200.104,96.030 199.350,95.600 198.800 C 95.170 198.250,94.814 197.509,94.809 197.154 C 94.804 196.799,94.440 196.050,94.000 195.491 C 93.560 194.931,93.200 194.230,93.200 193.931 C 93.200 193.632,92.840 192.716,92.400 191.896 C 91.960 191.075,91.600 190.175,91.600 189.896 C 91.600 189.616,91.240 188.716,90.800 187.896 C 90.360 187.075,90.000 186.085,90.000 185.696 C 90.000 185.306,89.667 184.361,89.261 183.594 C 88.854 182.827,88.398 181.412,88.248 180.449 C 88.097 179.486,87.710 178.321,87.387 177.860 C 87.064 177.399,86.800 176.428,86.800 175.701 C 86.800 174.974,86.440 173.356,86.000 172.104 C 85.560 170.852,85.200 169.216,85.200 168.469 C 85.200 167.721,84.807 165.555,84.327 163.655 C 82.994 158.380,82.994 132.020,84.327 126.745 C 84.807 124.845,85.200 122.679,85.200 121.931 C 85.200 121.184,85.560 119.548,86.000 118.296 C 86.440 117.044,86.800 115.572,86.800 115.025 C 86.800 114.477,87.160 113.116,87.600 112.000 C 88.040 110.884,88.400 109.616,88.400 109.184 C 88.400 108.751,88.760 107.725,89.200 106.904 C 89.640 106.084,90.000 105.094,90.000 104.704 C 90.000 104.315,90.360 103.325,90.800 102.504 C 91.240 101.684,91.600 100.789,91.600 100.517 C 91.600 99.206,99.389 83.651,100.703 82.337 C 100.976 82.064,101.200 81.705,101.200 81.540 C 101.200 81.375,101.785 80.403,102.500 79.379 C 103.215 78.356,103.980 77.227,104.200 76.870 C 104.420 76.514,105.365 75.256,106.300 74.075 C 107.235 72.893,108.000 71.808,108.000 71.663 C 108.001 71.368,109.524 69.589,113.497 65.244 C 120.372 57.726,125.701 52.868,132.197 48.200 C 133.421 47.320,134.799 46.290,135.259 45.912 C 135.719 45.533,136.434 45.116,136.848 44.985 C 137.261 44.854,137.600 44.581,137.600 44.378 C 137.600 44.176,138.185 43.732,138.900 43.391 C 141.040 42.370,142.588 41.495,142.800 41.183 C 142.910 41.022,143.630 40.600,144.400 40.245 C 145.170 39.890,146.610 39.133,147.600 38.561 C 148.590 37.990,149.940 37.327,150.600 37.088 C 151.260 36.849,152.038 36.417,152.329 36.127 C 152.619 35.837,153.159 35.599,153.529 35.597 C 153.898 35.596,154.740 35.237,155.400 34.800 C 156.060 34.363,156.960 34.003,157.400 34.000 C 157.840 33.997,158.740 33.637,159.400 33.200 C 160.060 32.763,160.960 32.398,161.400 32.389 C 161.840 32.380,162.920 32.025,163.800 31.600 C 164.680 31.175,165.760 30.817,166.200 30.805 C 166.640 30.792,167.785 30.426,168.744 29.991 C 169.703 29.556,170.917 29.200,171.442 29.200 C 171.967 29.200,173.433 28.857,174.698 28.437 C 175.964 28.017,177.990 27.566,179.200 27.435 C 180.410 27.304,182.120 26.950,183.000 26.647 C 183.880 26.345,186.850 25.964,189.600 25.801 C 192.350 25.638,195.500 25.361,196.600 25.184 C 199.109 24.782,207.672 24.964,215.000 25.575 M315.646 48.300 C 315.621 48.795,315.421 49.200,315.202 49.200 C 314.983 49.200,313.212 50.775,311.267 52.700 C 305.914 57.999,287.353 76.120,262.615 100.200 C 255.156 107.460,247.861 114.570,246.403 116.000 C 239.784 122.493,214.395 147.270,212.600 148.988 C 210.127 151.355,186.325 174.553,181.602 179.200 C 176.339 184.378,149.191 210.882,147.600 212.395 C 146.242 213.687,122.158 237.154,116.807 242.400 C 98.189 260.649,86.263 272.225,85.966 272.333 C 85.764 272.407,85.613 273.577,85.628 274.933 C 85.658 277.593,86.318 277.090,86.372 274.367 C 86.398 273.024,87.245 272.107,99.847 259.767 C 107.243 252.525,115.861 244.080,118.999 241.000 C 126.465 233.671,145.475 215.219,146.961 213.858 C 147.944 212.959,161.360 199.826,183.594 178.000 C 190.212 171.503,209.462 152.835,210.962 151.459 C 211.961 150.542,229.273 133.584,248.589 114.600 C 251.723 111.520,256.788 106.597,259.844 103.659 C 266.466 97.294,271.113 92.767,292.141 72.195 C 300.908 63.618,309.877 54.848,312.071 52.706 C 314.860 49.984,316.006 48.599,315.877 48.106 C 315.736 47.567,315.682 47.613,315.646 48.300 M273.473 101.300 C 263.411 111.194,249.327 124.943,242.600 131.438 C 233.006 140.701,205.629 167.430,190.607 182.200 C 182.088 190.575,166.452 205.748,164.151 207.873 C 162.492 209.404,140.218 231.204,126.013 245.200 C 122.775 248.390,117.848 253.182,115.063 255.850 C 112.278 258.517,110.000 260.984,110.000 261.331 C 110.000 262.806,123.840 274.998,128.013 277.199 C 128.556 277.485,129.090 277.828,129.200 277.961 C 129.640 278.491,132.670 280.400,133.073 280.400 C 133.309 280.400,133.735 280.680,134.019 281.023 C 134.304 281.366,135.091 281.908,135.768 282.228 C 136.446 282.548,138.260 283.523,139.800 284.395 C 141.340 285.267,143.050 286.183,143.600 286.429 C 147.458 288.161,148.364 288.581,149.679 289.249 C 150.493 289.662,151.483 290.001,151.879 290.003 C 152.276 290.004,153.140 290.363,153.800 290.800 C 154.460 291.237,155.360 291.602,155.800 291.611 C 156.240 291.620,157.320 291.975,158.200 292.400 C 159.080 292.825,160.250 293.180,160.800 293.189 C 161.350 293.198,162.319 293.476,162.953 293.806 C 163.587 294.137,164.847 294.512,165.753 294.640 C 166.659 294.769,168.436 295.217,169.702 295.637 C 170.967 296.057,172.694 296.400,173.538 296.400 C 174.382 296.400,175.956 296.678,177.036 297.019 C 181.887 298.546,211.644 298.700,215.400 297.216 C 216.060 296.956,218.118 296.570,219.974 296.358 C 221.830 296.147,223.546 295.810,223.788 295.610 C 224.030 295.409,225.331 295.068,226.680 294.850 C 228.029 294.633,229.679 294.173,230.347 293.828 C 231.014 293.482,231.974 293.196,232.480 293.191 C 232.986 293.186,234.185 292.826,235.144 292.391 C 236.103 291.956,237.185 291.600,237.550 291.600 C 237.914 291.600,238.884 291.240,239.704 290.800 C 240.525 290.360,241.403 290.000,241.655 290.000 C 242.525 290.000,255.171 283.789,258.000 281.972 C 258.990 281.336,260.208 280.636,260.706 280.416 C 261.666 279.992,263.816 278.536,264.718 277.700 C 265.014 277.425,265.406 277.200,265.587 277.200 C 266.010 277.200,273.420 271.419,276.780 268.467 C 282.590 263.362,293.200 251.987,293.200 250.862 C 293.200 250.630,293.429 250.296,293.710 250.120 C 293.990 249.944,294.524 249.350,294.897 248.800 C 295.269 248.250,296.120 247.029,296.787 246.086 C 297.454 245.143,298.000 244.207,298.000 244.006 C 298.000 243.804,298.246 243.496,298.546 243.320 C 298.846 243.144,299.391 242.460,299.758 241.800 C 300.124 241.140,300.779 240.060,301.213 239.400 C 301.647 238.740,302.285 237.589,302.631 236.842 C 302.976 236.095,303.516 235.227,303.830 234.913 C 304.143 234.599,304.400 234.069,304.400 233.735 C 304.400 233.400,304.760 232.669,305.200 232.109 C 305.640 231.550,306.000 230.830,306.000 230.509 C 306.000 230.189,306.360 229.469,306.800 228.909 C 307.240 228.350,307.600 227.637,307.600 227.325 C 307.600 227.014,307.941 226.093,308.358 225.279 C 309.681 222.698,310.800 219.999,310.800 219.388 C 310.800 219.063,311.160 218.125,311.600 217.304 C 312.040 216.484,312.400 215.354,312.400 214.795 C 312.400 214.236,312.655 213.414,312.967 212.969 C 313.279 212.523,313.654 211.448,313.802 210.580 C 313.949 209.711,314.414 207.964,314.835 206.698 C 315.256 205.433,315.600 203.864,315.600 203.212 C 315.600 202.561,315.877 201.212,316.215 200.215 C 316.554 199.219,316.993 196.557,317.191 194.301 C 317.389 192.046,317.766 189.300,318.028 188.200 C 318.791 184.995,318.677 168.570,317.862 164.456 C 317.498 162.617,317.200 160.271,317.200 159.243 C 317.200 158.215,316.927 156.390,316.593 155.187 C 316.260 153.984,315.815 151.911,315.606 150.580 C 315.397 149.249,314.950 147.499,314.613 146.693 C 314.276 145.886,314.000 144.722,314.000 144.107 C 314.000 143.492,313.640 142.316,313.200 141.496 C 312.760 140.675,312.400 139.595,312.400 139.096 C 312.400 138.596,312.040 137.516,311.600 136.696 C 311.160 135.875,310.800 134.907,310.800 134.545 C 310.800 134.184,310.420 133.058,309.957 132.044 C 308.957 129.859,307.848 127.389,307.242 126.000 C 307.002 125.450,306.644 124.730,306.446 124.400 C 306.248 124.070,305.888 123.350,305.646 122.800 C 305.404 122.250,305.044 121.530,304.846 121.200 C 304.648 120.870,304.283 120.150,304.035 119.600 C 303.787 119.050,303.147 117.880,302.613 117.000 C 302.078 116.120,301.471 115.033,301.262 114.584 C 301.054 114.135,300.595 113.527,300.242 113.235 C 299.889 112.942,299.600 112.470,299.600 112.187 C 299.600 111.904,298.880 110.761,298.000 109.648 C 297.120 108.534,296.400 107.509,296.400 107.370 C 296.400 107.230,295.942 106.550,295.383 105.858 C 294.824 105.166,294.059 104.188,293.683 103.684 C 293.307 103.181,292.724 102.461,292.386 102.084 C 292.048 101.708,290.759 100.140,289.522 98.600 C 286.369 94.676,284.060 92.400,283.231 92.400 C 282.842 92.400,278.451 96.405,273.473 101.300 M285.737 95.100 C 286.710 96.145,288.469 98.170,289.646 99.600 C 290.822 101.030,291.879 102.290,291.993 102.400 C 293.187 103.552,299.403 112.570,300.953 115.400 C 301.314 116.060,301.778 116.870,301.983 117.200 C 304.092 120.599,306.229 125.042,309.774 133.400 C 317.381 151.333,319.956 179.346,315.823 199.200 C 312.815 213.651,308.770 224.824,302.648 235.600 C 302.086 236.590,301.326 237.940,300.961 238.600 C 300.054 240.235,296.034 246.358,295.022 247.644 C 294.570 248.219,293.930 249.103,293.600 249.610 C 293.270 250.117,292.705 250.842,292.345 251.221 C 291.985 251.600,291.535 252.187,291.345 252.525 C 288.199 258.137,270.006 274.168,259.938 280.200 C 255.138 283.076,249.939 285.822,246.600 287.244 C 245.060 287.900,243.322 288.698,242.738 289.018 C 242.154 289.338,241.462 289.600,241.199 289.600 C 240.936 289.600,240.154 289.859,239.460 290.175 C 238.114 290.789,233.967 292.163,229.400 293.508 C 208.260 299.732,179.990 299.259,160.200 292.351 C 159.540 292.121,158.190 291.701,157.200 291.419 C 156.210 291.136,154.770 290.632,154.000 290.297 C 153.230 289.963,151.610 289.280,150.400 288.779 C 137.523 283.452,123.453 274.279,113.700 264.852 C 109.951 261.228,109.677 261.928,118.065 253.714 C 122.061 249.801,126.888 245.070,128.791 243.200 C 133.727 238.351,159.413 213.303,161.800 211.012 C 164.254 208.656,188.031 185.488,192.806 180.800 C 196.262 177.406,205.827 168.058,220.205 154.024 C 224.387 149.941,233.917 140.660,241.381 133.400 C 248.846 126.140,259.284 115.958,264.577 110.774 C 285.234 90.540,283.019 92.181,285.737 95.100 M267.600 308.400 C 267.600 308.620,267.870 308.800,268.200 308.800 C 268.530 308.800,268.800 308.620,268.800 308.400 C 268.800 308.180,268.530 308.000,268.200 308.000 C 267.870 308.000,267.600 308.180,267.600 308.400 M264.320 310.080 C 264.693 310.453,264.907 310.453,265.280 310.080 C 265.653 309.707,265.547 309.600,264.800 309.600 C 264.053 309.600,263.947 309.707,264.320 310.080 M260.000 311.600 C 260.000 311.820,260.270 312.000,260.600 312.000 C 260.930 312.000,261.200 311.820,261.200 311.600 C 261.200 311.380,260.930 311.200,260.600 311.200 C 260.270 311.200,260.000 311.380,260.000 311.600 M256.200 313.200 C 256.336 313.420,256.707 313.600,257.024 313.600 C 257.341 313.600,257.600 313.420,257.600 313.200 C 257.600 312.980,257.229 312.800,256.776 312.800 C 256.323 312.800,256.064 312.980,256.200 313.200 M251.600 315.000 C 251.600 315.330,251.758 315.600,251.951 315.600 C 252.144 315.600,252.526 315.330,252.800 315.000 C 253.216 314.499,253.158 314.400,252.449 314.400 C 251.961 314.400,251.600 314.655,251.600 315.000 M245.902 316.266 C 246.179 316.377,246.327 316.594,246.232 316.748 C 246.137 316.903,246.401 317.029,246.819 317.029 C 247.238 317.029,247.669 316.797,247.778 316.514 C 247.914 316.157,247.581 316.010,246.687 316.032 C 245.979 316.049,245.626 316.154,245.902 316.266 M233.359 319.700 C 233.201 319.975,233.219 320.067,233.399 319.903 C 233.579 319.740,233.923 319.771,234.164 319.970 C 234.435 320.195,234.985 320.122,235.601 319.781 C 236.598 319.230,236.597 319.228,235.124 319.214 C 234.312 319.206,233.518 319.425,233.359 319.700 M171.242 320.976 C 171.635 321.369,173.603 321.519,173.817 321.172 C 173.944 320.968,173.377 320.800,172.557 320.800 C 171.737 320.800,171.146 320.879,171.242 320.976 M225.305 321.071 C 225.702 321.178,225.895 321.466,225.746 321.730 C 225.545 322.089,225.602 322.090,225.990 321.731 C 226.269 321.473,226.735 321.354,227.024 321.465 C 227.314 321.576,227.848 321.501,228.210 321.298 C 228.680 321.035,228.256 320.923,226.735 320.906 C 225.561 320.892,224.917 320.967,225.305 321.071 M183.600 322.553 C 183.600 322.917,185.159 323.072,185.656 322.757 C 186.026 322.523,185.784 322.410,184.900 322.406 C 184.185 322.403,183.600 322.469,183.600 322.553 M212.836 323.044 C 213.130 323.398,213.427 323.520,213.495 323.315 C 213.564 323.109,214.134 323.017,214.762 323.109 C 215.391 323.201,216.027 323.080,216.176 322.838 C 216.359 322.542,215.776 322.400,214.375 322.400 C 212.515 322.400,212.357 322.466,212.836 323.044 " stroke="none" fill="#3f396a" fill-rule="evenodd"></path><path id="path3" d="M166.577 1.367 C 166.150 1.679,165.891 2.024,166.001 2.133 C 166.110 2.242,166.625 1.987,167.144 1.566 C 168.231 0.685,167.743 0.515,166.577 1.367 M232.389 1.245 C 232.932 1.462,233.515 1.856,233.683 2.120 C 233.919 2.492,233.989 2.490,233.994 2.114 C 234.001 1.572,232.739 0.786,231.926 0.825 C 231.637 0.839,231.845 1.028,232.389 1.245 M159.680 2.880 C 159.416 3.144,159.200 3.538,159.200 3.756 C 159.200 3.975,159.425 3.861,159.700 3.505 C 159.975 3.148,160.650 2.778,161.200 2.683 L 162.200 2.509 161.180 2.454 C 160.619 2.425,159.944 2.616,159.680 2.880 M245.309 4.800 C 245.869 5.240,246.431 5.600,246.559 5.600 C 246.687 5.600,246.484 5.240,246.107 4.800 C 245.730 4.360,245.168 4.000,244.857 4.000 C 244.521 4.000,244.704 4.324,245.309 4.800 M259.687 9.591 C 260.191 10.397,260.800 10.674,260.800 10.096 C 260.800 9.929,260.436 9.565,259.991 9.287 C 259.241 8.819,259.219 8.841,259.687 9.591 M276.475 17.048 C 276.847 17.158,277.242 17.553,277.352 17.925 C 277.499 18.414,277.532 18.381,277.472 17.805 C 277.425 17.338,277.062 16.975,276.595 16.928 C 276.019 16.868,275.986 16.901,276.475 17.048 M111.660 23.842 C 111.362 24.178,111.199 24.532,111.295 24.629 C 111.392 24.726,111.798 24.444,112.198 24.002 C 112.597 23.561,112.761 23.207,112.562 23.215 C 112.363 23.224,111.957 23.505,111.660 23.842 M193.000 23.832 C 191.522 23.971,187.298 24.604,181.400 25.570 C 176.653 26.347,172.482 27.375,167.200 29.068 C 166.210 29.386,164.702 29.821,163.848 30.036 C 162.995 30.251,161.919 30.691,161.459 31.014 C 160.999 31.336,160.344 31.600,160.005 31.600 C 159.666 31.600,158.716 31.960,157.896 32.400 C 157.075 32.840,156.190 33.200,155.929 33.200 C 155.668 33.200,152.923 34.465,149.828 36.012 C 143.626 39.111,143.589 39.132,140.287 41.289 C 139.016 42.120,137.855 42.800,137.709 42.800 C 137.281 42.800,134.230 44.951,133.880 45.499 C 133.704 45.774,133.370 46.000,133.138 46.000 C 132.906 46.000,132.150 46.456,131.458 47.014 C 129.681 48.447,128.705 49.226,126.962 50.600 C 117.247 58.261,108.141 68.418,100.400 80.227 C 97.676 84.382,90.800 97.695,90.800 98.814 C 90.800 99.068,90.532 99.754,90.205 100.338 C 89.572 101.470,88.672 103.865,87.777 106.800 C 87.475 107.790,86.973 109.410,86.662 110.400 C 85.983 112.562,85.293 115.158,84.748 117.600 C 84.527 118.590,84.098 120.396,83.795 121.613 C 83.493 122.831,83.047 125.772,82.805 128.150 C 82.563 130.528,82.193 133.382,81.983 134.492 C 81.471 137.190,81.493 153.730,82.012 156.445 C 82.238 157.630,82.606 160.400,82.830 162.600 C 83.054 164.800,83.485 167.500,83.788 168.600 C 84.090 169.700,84.518 171.500,84.738 172.600 C 85.199 174.906,85.855 177.430,86.662 180.000 C 86.973 180.990,87.475 182.610,87.777 183.600 C 88.466 185.860,89.467 188.639,90.155 190.200 C 91.693 193.689,92.483 195.372,94.378 199.200 C 95.521 201.510,96.886 204.120,97.409 205.000 C 97.933 205.880,98.493 206.870,98.654 207.200 C 98.815 207.530,99.245 208.250,99.610 208.800 C 99.976 209.350,100.798 210.610,101.437 211.600 C 102.077 212.590,102.737 213.580,102.905 213.800 C 104.380 215.736,105.497 217.255,106.000 218.008 C 106.970 219.462,110.460 223.632,112.344 225.589 C 113.303 226.585,114.359 227.805,114.690 228.300 C 116.145 230.475,117.234 229.817,125.273 221.900 C 131.414 215.852,141.729 205.801,158.215 189.800 C 163.356 184.810,187.130 161.571,192.588 156.200 C 195.718 153.120,203.471 145.560,209.816 139.400 C 216.162 133.240,222.188 127.390,223.208 126.400 C 229.468 120.322,251.813 98.500,256.589 93.800 C 263.102 87.391,283.863 67.204,287.300 63.939 C 290.795 60.618,290.265 59.542,281.633 52.436 C 280.221 51.274,278.830 50.115,278.543 49.861 C 278.255 49.608,277.611 49.093,277.110 48.717 C 276.610 48.341,275.634 47.576,274.942 47.017 C 274.250 46.458,273.570 46.000,273.430 46.000 C 273.291 46.000,272.266 45.280,271.152 44.400 C 270.039 43.520,268.970 42.800,268.777 42.800 C 268.583 42.800,267.384 42.120,266.113 41.289 C 262.729 39.078,262.661 39.040,257.000 36.245 C 250.499 33.036,247.266 31.600,246.538 31.600 C 246.226 31.600,245.573 31.340,245.086 31.022 C 244.599 30.705,243.480 30.265,242.600 30.045 C 241.720 29.825,240.190 29.386,239.200 29.068 C 234.341 27.511,231.723 26.789,230.950 26.794 C 230.483 26.797,229.366 26.541,228.468 26.224 C 227.570 25.907,225.162 25.459,223.118 25.229 C 221.073 24.999,218.770 24.612,218.000 24.370 C 216.647 23.945,196.426 23.510,193.000 23.832 M211.400 24.391 C 225.171 25.617,241.968 29.509,248.740 33.042 C 249.323 33.346,249.948 33.596,250.129 33.598 C 252.820 33.618,270.155 43.967,278.000 50.237 C 288.485 58.618,290.100 60.617,287.912 62.508 C 287.461 62.897,280.339 69.827,272.085 77.908 C 263.830 85.988,255.601 94.040,253.798 95.800 C 251.995 97.560,244.530 104.850,237.209 112.000 C 229.888 119.150,223.764 125.090,223.600 125.200 C 223.353 125.365,211.937 136.514,189.604 158.400 C 187.696 160.270,182.909 164.935,178.967 168.766 C 175.025 172.598,168.650 178.815,164.800 182.582 C 155.123 192.050,128.901 217.626,122.600 223.743 C 117.453 228.738,116.086 229.583,115.320 228.239 C 115.144 227.930,114.100 226.709,113.000 225.526 C 111.900 224.343,110.053 222.210,108.896 220.787 C 107.739 219.364,106.620 217.989,106.409 217.731 C 105.662 216.815,99.346 207.390,99.084 206.800 C 98.938 206.470,98.281 205.300,97.624 204.200 C 95.604 200.819,91.617 192.517,90.996 190.400 C 90.834 189.850,90.566 189.220,90.399 189.000 C 89.408 187.690,85.170 173.132,84.578 169.000 C 84.420 167.900,84.134 166.578,83.941 166.063 C 82.494 162.183,81.748 144.748,82.616 135.071 C 84.027 119.346,87.544 106.488,94.233 92.600 C 101.514 77.483,112.849 62.898,125.200 52.751 C 126.630 51.576,127.890 50.520,128.000 50.405 C 129.419 48.917,138.885 42.557,144.200 39.520 C 146.383 38.273,155.190 33.969,156.708 33.407 C 157.529 33.104,159.190 32.471,160.400 32.002 C 165.550 30.003,170.300 28.639,179.934 26.390 C 181.682 25.982,192.667 24.539,196.000 24.280 C 199.717 23.991,207.539 24.047,211.400 24.391 M106.860 27.042 C 106.562 27.378,106.399 27.732,106.495 27.829 C 106.592 27.926,106.998 27.644,107.398 27.202 C 107.797 26.761,107.961 26.407,107.762 26.415 C 107.563 26.424,107.157 26.705,106.860 27.042 M296.784 30.370 C 297.028 30.826,297.402 31.200,297.614 31.200 C 298.301 31.200,298.023 30.441,297.170 29.984 C 296.410 29.577,296.377 29.610,296.784 30.370 M94.920 36.535 C 94.744 36.830,94.240 37.294,93.800 37.566 C 93.130 37.980,93.119 38.023,93.733 37.830 C 94.136 37.704,94.610 37.600,94.786 37.600 C 94.962 37.600,95.201 37.240,95.316 36.800 C 95.557 35.878,95.382 35.761,94.920 36.535 M308.132 39.346 C 308.535 39.670,309.130 40.265,309.454 40.668 C 310.003 41.349,310.014 41.338,309.613 40.509 C 309.376 40.019,308.781 39.424,308.291 39.187 C 307.462 38.786,307.451 38.797,308.132 39.346 M88.100 42.412 C 87.605 42.611,87.200 43.035,87.200 43.354 C 87.200 43.673,86.975 44.024,86.700 44.135 C 86.324 44.287,86.333 44.345,86.737 44.368 C 87.033 44.386,87.369 44.040,87.484 43.600 C 87.599 43.160,87.932 42.800,88.223 42.800 C 88.514 42.800,88.864 42.620,89.000 42.400 C 89.287 41.936,89.285 41.936,88.100 42.412 M311.003 42.405 C 311.137 42.622,311.493 42.800,311.794 42.800 C 312.095 42.800,312.426 43.074,312.530 43.408 C 312.677 43.883,312.706 43.871,312.659 43.353 C 312.627 42.988,312.186 42.537,311.680 42.351 C 311.093 42.134,310.848 42.154,311.003 42.405 M314.763 48.291 C 314.262 48.853,300.964 61.832,287.193 75.200 C 281.032 81.180,258.601 103.086,253.812 107.800 C 248.067 113.454,225.498 135.437,221.800 138.980 C 219.065 141.601,195.475 164.638,189.216 170.800 C 184.186 175.752,161.652 197.690,157.800 201.386 C 155.648 203.450,133.053 225.515,125.016 233.400 C 118.162 240.125,94.458 263.217,92.959 264.630 C 86.773 270.461,84.640 272.754,84.174 274.073 C 83.611 275.671,84.109 276.675,85.147 276.033 C 85.559 275.778,85.541 275.663,85.060 275.478 C 83.876 275.024,85.304 272.849,89.394 268.876 C 92.754 265.612,117.353 241.631,126.398 232.800 C 127.863 231.370,135.596 223.810,143.581 216.000 C 151.567 208.190,158.237 201.710,158.403 201.600 C 158.650 201.436,173.895 186.563,191.204 169.600 C 193.112 167.730,197.897 163.061,201.837 159.224 C 205.777 155.387,212.150 149.171,216.000 145.410 C 219.850 141.648,229.825 131.917,238.166 123.785 C 246.508 115.653,254.806 107.560,256.607 105.800 C 278.203 84.694,286.552 76.567,286.811 76.400 C 286.981 76.290,291.786 71.610,297.489 66.000 C 303.191 60.390,309.608 54.118,311.749 52.062 C 313.890 50.007,315.586 48.158,315.518 47.953 C 315.450 47.749,315.110 47.901,314.763 48.291 M80.938 49.417 C 80.808 49.757,80.813 50.147,80.951 50.284 C 81.088 50.421,81.200 50.247,81.200 49.896 C 81.200 49.545,81.515 49.176,81.900 49.076 C 82.556 48.904,82.555 48.890,81.887 48.846 C 81.496 48.821,81.068 49.078,80.938 49.417 M77.293 53.477 C 76.593 54.289,76.109 55.042,76.217 55.150 C 76.325 55.258,76.725 54.932,77.107 54.426 C 77.488 53.919,78.115 53.166,78.500 52.753 C 78.885 52.339,79.057 52.000,78.883 52.000 C 78.708 52.000,77.993 52.665,77.293 53.477 M70.071 62.229 C 69.780 62.558,69.600 62.985,69.671 63.177 C 69.742 63.369,70.123 63.093,70.519 62.563 C 71.297 61.520,70.936 61.250,70.071 62.229 M57.362 82.058 C 56.604 82.912,56.605 82.914,57.500 82.444 C 57.995 82.184,58.400 81.798,58.400 81.586 C 58.400 81.018,58.209 81.105,57.362 82.058 M53.992 87.810 C 53.219 88.741,53.771 88.917,54.598 88.002 C 54.997 87.561,55.138 87.200,54.911 87.200 C 54.684 87.200,54.270 87.474,53.992 87.810 M52.471 91.029 C 52.180 91.358,52.000 91.785,52.071 91.977 C 52.142 92.169,52.523 91.893,52.919 91.363 C 53.697 90.320,53.336 90.050,52.471 91.029 M271.165 104.513 C 265.095 110.501,254.306 121.070,247.188 128.000 C 240.071 134.930,230.547 144.220,226.024 148.644 C 221.501 153.068,217.328 157.118,216.751 157.644 C 215.861 158.455,194.459 179.350,183.201 190.400 C 172.012 201.380,152.257 220.630,152.001 220.800 C 151.742 220.972,132.293 239.974,115.932 256.039 C 113.109 258.811,110.800 261.259,110.800 261.480 C 110.800 261.926,114.437 265.431,118.396 268.800 C 119.817 270.010,121.180 271.180,121.424 271.400 C 121.668 271.620,122.366 272.160,122.974 272.600 C 123.582 273.040,124.737 273.912,125.540 274.539 C 130.686 278.552,142.570 285.368,149.400 288.224 C 160.838 293.007,171.077 295.624,184.800 297.270 C 189.663 297.853,209.737 297.448,213.800 296.684 C 215.560 296.353,218.080 295.884,219.400 295.642 C 226.830 294.279,238.145 290.909,243.060 288.594 C 243.754 288.267,244.416 288.000,244.533 288.000 C 245.036 288.000,252.921 284.054,256.400 282.061 C 294.435 260.275,317.558 220.596,317.595 177.051 C 317.600 171.773,316.632 158.476,316.151 157.200 C 316.027 156.870,315.594 154.890,315.191 152.800 C 311.317 132.744,301.817 113.682,287.632 97.500 C 282.935 92.142,284.289 91.565,271.165 104.513 M284.680 94.954 C 284.856 95.259,286.118 96.711,287.485 98.181 C 291.112 102.082,298.880 112.785,300.710 116.400 C 300.988 116.950,301.653 118.120,302.187 119.000 C 302.722 119.880,303.348 121.050,303.579 121.600 C 303.810 122.150,304.180 122.870,304.401 123.200 C 304.621 123.530,304.991 124.250,305.222 124.800 C 306.029 126.724,307.267 129.409,307.831 130.462 C 308.144 131.046,308.400 131.768,308.400 132.068 C 308.400 132.367,308.736 133.239,309.147 134.006 C 309.557 134.773,310.024 135.997,310.184 136.727 C 310.344 137.457,310.727 138.537,311.035 139.127 C 311.343 139.717,311.596 140.508,311.598 140.885 C 311.599 141.262,311.936 142.432,312.347 143.485 C 312.757 144.538,313.225 146.300,313.386 147.400 C 313.547 148.500,313.838 149.698,314.033 150.062 C 314.228 150.427,314.658 152.407,314.988 154.462 C 315.318 156.518,315.800 159.100,316.059 160.200 C 316.371 161.524,316.542 167.069,316.565 176.600 C 316.604 192.596,316.596 192.671,313.399 206.600 C 312.873 208.892,312.067 211.604,311.139 214.200 C 310.903 214.860,310.478 216.210,310.194 217.200 C 309.910 218.190,309.392 219.540,309.042 220.200 C 308.691 220.860,308.404 221.642,308.402 221.938 C 308.401 222.234,308.147 222.954,307.838 223.538 C 307.529 224.122,306.789 225.680,306.193 227.000 C 305.598 228.320,304.950 229.670,304.752 230.000 C 304.401 230.589,303.912 231.610,303.413 232.800 C 303.275 233.130,302.724 234.120,302.189 235.000 C 301.654 235.880,300.987 237.050,300.708 237.600 C 300.244 238.514,297.226 243.253,296.505 244.200 C 296.337 244.420,295.664 245.410,295.009 246.400 C 290.708 252.903,281.437 263.019,274.790 268.462 C 271.895 270.833,271.083 271.517,270.117 272.397 C 269.757 272.726,269.167 273.176,268.807 273.397 C 266.173 275.014,265.200 275.727,265.200 276.040 C 265.200 276.238,265.013 276.400,264.784 276.400 C 264.555 276.400,263.880 276.736,263.284 277.146 C 259.582 279.695,252.995 283.522,250.800 284.400 C 250.250 284.620,249.530 284.980,249.200 285.201 C 248.870 285.421,248.150 285.786,247.600 286.012 C 247.050 286.237,246.060 286.665,245.400 286.963 C 241.606 288.677,240.336 289.200,239.967 289.200 C 239.741 289.200,238.801 289.540,237.878 289.955 C 236.955 290.370,235.570 290.841,234.800 291.001 C 234.030 291.161,233.218 291.438,232.995 291.616 C 232.772 291.794,231.512 292.213,230.195 292.546 C 228.878 292.879,227.080 293.335,226.200 293.560 C 222.024 294.628,217.055 295.598,213.600 296.019 C 211.510 296.274,208.810 296.629,207.600 296.808 C 204.430 297.276,188.666 297.256,185.600 296.780 C 184.170 296.558,180.882 296.117,178.294 295.799 C 175.706 295.482,173.276 295.055,172.894 294.850 C 172.512 294.646,171.300 294.360,170.200 294.215 C 169.100 294.070,167.480 293.695,166.600 293.382 C 165.720 293.068,164.190 292.643,163.200 292.436 C 162.210 292.229,160.500 291.746,159.400 291.361 C 152.565 288.971,152.995 289.137,148.600 287.192 C 145.806 285.956,138.918 282.500,137.000 281.372 C 136.120 280.855,134.877 280.135,134.238 279.773 C 133.598 279.411,132.878 278.951,132.638 278.752 C 131.674 277.952,129.142 276.400,128.802 276.400 C 128.603 276.400,128.296 276.171,128.120 275.890 C 127.825 275.420,126.443 274.373,124.832 273.400 C 124.206 273.021,123.657 272.588,122.046 271.200 C 121.663 270.870,120.191 269.618,118.775 268.419 C 110.845 261.701,110.760 261.509,114.296 258.291 C 115.318 257.361,118.429 254.350,121.210 251.600 C 125.501 247.356,130.724 242.271,151.815 221.800 C 155.905 217.831,180.140 194.149,185.382 189.000 C 189.340 185.112,208.519 166.436,216.806 158.400 C 222.300 153.072,245.288 130.623,250.189 125.800 C 253.319 122.720,261.076 115.160,267.427 109.000 C 273.779 102.840,279.701 97.043,280.588 96.119 C 282.267 94.367,284.049 93.860,284.680 94.954 M49.296 98.395 C 48.586 99.532,48.682 99.693,49.600 98.907 C 50.414 98.210,50.646 97.600,50.096 97.600 C 49.929 97.600,49.569 97.958,49.296 98.395 M47.671 102.229 C 47.380 102.558,47.200 102.985,47.271 103.177 C 47.342 103.369,47.723 103.093,48.119 102.563 C 48.897 101.520,48.536 101.250,47.671 102.229 M40.960 123.419 C 40.819 123.979,40.816 124.549,40.952 124.685 C 41.088 124.822,41.200 124.608,41.200 124.211 C 41.200 123.813,41.515 123.249,41.900 122.957 C 42.560 122.456,42.560 122.425,41.908 122.413 C 41.494 122.405,41.112 122.810,40.960 123.419 M39.784 129.627 C 39.639 129.861,39.616 130.149,39.733 130.267 C 40.020 130.553,40.800 130.048,40.800 129.576 C 40.800 129.065,40.109 129.099,39.784 129.627 M37.606 181.281 C 37.598 182.182,38.439 184.000,38.864 184.000 C 39.458 184.000,39.222 182.894,38.575 182.646 C 38.231 182.514,38.039 182.261,38.148 182.084 C 38.258 181.907,38.182 181.500,37.980 181.181 C 37.673 180.696,37.611 180.712,37.606 181.281 M45.600 215.096 C 45.600 215.642,46.820 216.913,47.088 216.645 C 47.194 216.540,46.902 216.047,46.440 215.551 C 45.978 215.055,45.600 214.850,45.600 215.096 M50.528 226.995 C 50.575 227.462,50.938 227.825,51.405 227.872 C 51.981 227.932,52.014 227.899,51.525 227.752 C 51.153 227.642,50.758 227.247,50.648 226.875 C 50.501 226.386,50.468 226.419,50.528 226.995 " stroke="none" fill="#5c5474" fill-rule="evenodd"></path><path id="path4" d="M200.300 24.297 C 201.895 24.373,204.505 24.373,206.100 24.297 C 207.695 24.221,206.390 24.159,203.200 24.159 C 200.010 24.159,198.705 24.221,200.300 24.297 M121.200 56.200 C 120.228 57.190,119.523 58.000,119.633 58.000 C 119.743 58.000,120.628 57.190,121.600 56.200 C 122.572 55.210,123.277 54.400,123.167 54.400 C 123.057 54.400,122.172 55.210,121.200 56.200 M286.615 58.012 C 287.927 59.449,289.082 60.567,289.181 60.498 C 289.281 60.428,288.208 59.252,286.797 57.885 L 284.231 55.400 286.615 58.012 M113.781 63.700 L 112.200 65.400 113.900 63.819 C 115.481 62.348,115.784 62.000,115.481 62.000 C 115.416 62.000,114.651 62.765,113.781 63.700 M297.991 65.500 L 294.600 69.000 298.100 65.609 C 300.025 63.744,301.600 62.169,301.600 62.109 C 301.600 61.818,301.141 62.249,297.991 65.500 M276.788 73.100 L 274.200 75.800 276.900 73.212 C 279.408 70.807,279.783 70.400,279.488 70.400 C 279.427 70.400,278.212 71.615,276.788 73.100 M282.792 80.300 L 279.000 84.200 282.900 80.408 C 285.045 78.322,286.800 76.567,286.800 76.508 C 286.800 76.218,286.314 76.678,282.792 80.300 M258.987 90.500 L 256.600 93.000 259.100 90.613 C 260.475 89.299,261.600 88.174,261.600 88.113 C 261.600 87.817,261.205 88.178,258.987 90.500 M268.000 94.600 C 267.028 95.590,266.323 96.400,266.433 96.400 C 266.543 96.400,267.428 95.590,268.400 94.600 C 269.372 93.610,270.077 92.800,269.967 92.800 C 269.857 92.800,268.972 93.610,268.000 94.600 M285.600 95.325 C 285.600 95.394,286.185 95.979,286.900 96.625 L 288.200 97.800 287.025 96.500 C 285.930 95.288,285.600 95.016,285.600 95.325 M271.191 104.300 L 267.800 107.800 271.300 104.409 C 273.225 102.544,274.800 100.969,274.800 100.909 C 274.800 100.618,274.341 101.049,271.191 104.300 M242.000 107.000 C 241.028 107.990,240.323 108.800,240.433 108.800 C 240.543 108.800,241.428 107.990,242.400 107.000 C 243.372 106.010,244.077 105.200,243.967 105.200 C 243.857 105.200,242.972 106.010,242.000 107.000 M250.987 111.300 L 248.600 113.800 251.100 111.413 C 252.475 110.099,253.600 108.974,253.600 108.913 C 253.600 108.617,253.205 108.978,250.987 111.300 M227.793 120.900 L 223.400 125.400 227.900 121.007 C 232.080 116.926,232.582 116.400,232.293 116.400 C 232.234 116.400,230.209 118.425,227.793 120.900 M252.587 122.500 L 250.200 125.000 252.700 122.613 C 254.075 121.299,255.200 120.174,255.200 120.113 C 255.200 119.817,254.805 120.178,252.587 122.500 M232.391 129.500 L 229.000 133.000 232.500 129.609 C 234.425 127.744,236.000 126.169,236.000 126.109 C 236.000 125.818,235.541 126.249,232.391 129.500 M82.893 132.400 C 82.893 133.170,82.975 133.485,83.076 133.100 C 83.176 132.715,83.176 132.085,83.076 131.700 C 82.975 131.315,82.893 131.630,82.893 132.400 M212.788 135.500 L 210.200 138.200 212.900 135.612 C 214.385 134.188,215.600 132.973,215.600 132.912 C 215.600 132.617,215.193 132.992,212.788 135.500 M82.493 136.800 C 82.493 137.570,82.575 137.885,82.676 137.500 C 82.776 137.115,82.776 136.485,82.676 136.100 C 82.575 135.715,82.493 136.030,82.493 136.800 M235.600 139.000 C 234.628 139.990,233.923 140.800,234.033 140.800 C 234.143 140.800,235.028 139.990,236.000 139.000 C 236.972 138.010,237.677 137.200,237.567 137.200 C 237.457 137.200,236.572 138.010,235.600 139.000 M218.193 143.300 L 213.800 147.800 218.300 143.407 C 222.480 139.326,222.982 138.800,222.693 138.800 C 222.634 138.800,220.609 140.825,218.193 143.300 M82.157 145.200 C 82.157 148.170,82.220 149.385,82.297 147.900 C 82.374 146.415,82.374 143.985,82.297 142.500 C 82.220 141.015,82.157 142.230,82.157 145.200 M221.393 152.900 L 217.000 157.400 221.500 153.007 C 225.680 148.926,226.182 148.400,225.893 148.400 C 225.834 148.400,223.809 150.425,221.393 152.900 M194.181 153.700 L 192.600 155.400 194.300 153.819 C 195.881 152.348,196.184 152.000,195.881 152.000 C 195.816 152.000,195.051 152.765,194.181 153.700 M82.493 153.600 C 82.493 154.370,82.575 154.685,82.676 154.300 C 82.776 153.915,82.776 153.285,82.676 152.900 C 82.575 152.515,82.493 152.830,82.493 153.600 M204.000 157.000 C 203.028 157.990,202.323 158.800,202.433 158.800 C 202.543 158.800,203.428 157.990,204.400 157.000 C 205.372 156.010,206.077 155.200,205.967 155.200 C 205.857 155.200,204.972 156.010,204.000 157.000 M82.893 158.000 C 82.893 158.770,82.975 159.085,83.076 158.700 C 83.176 158.315,83.176 157.685,83.076 157.300 C 82.975 156.915,82.893 157.230,82.893 158.000 M206.388 167.500 L 203.800 170.200 206.500 167.612 C 207.985 166.188,209.200 164.973,209.200 164.912 C 209.200 164.617,208.793 164.992,206.388 167.500 M317.293 168.400 C 317.293 169.170,317.375 169.485,317.476 169.100 C 317.576 168.715,317.576 168.085,317.476 167.700 C 317.375 167.315,317.293 167.630,317.293 168.400 M177.188 170.300 L 174.600 173.000 177.300 170.412 C 178.785 168.988,180.000 167.773,180.000 167.712 C 180.000 167.417,179.593 167.792,177.188 170.300 M317.760 177.000 C 317.761 180.300,317.822 181.597,317.898 179.882 C 317.973 178.167,317.972 175.467,317.897 173.882 C 317.821 172.297,317.759 173.700,317.760 177.000 M186.181 174.500 L 184.600 176.200 186.300 174.619 C 187.881 173.148,188.184 172.800,187.881 172.800 C 187.816 172.800,187.051 173.565,186.181 174.500 M162.193 184.900 L 157.800 189.400 162.300 185.007 C 164.775 182.591,166.800 180.566,166.800 180.507 C 166.800 180.218,166.274 180.720,162.193 184.900 M187.781 185.700 L 186.200 187.400 187.900 185.819 C 189.481 184.348,189.784 184.000,189.481 184.000 C 189.416 184.000,188.651 184.765,187.781 185.700 M317.293 185.600 C 317.293 186.370,317.375 186.685,317.476 186.300 C 317.576 185.915,317.576 185.285,317.476 184.900 C 317.375 184.515,317.293 184.830,317.293 185.600 M167.588 192.700 L 165.000 195.400 167.700 192.812 C 169.185 191.388,170.400 190.173,170.400 190.112 C 170.400 189.817,169.993 190.192,167.588 192.700 M147.991 198.700 L 144.600 202.200 148.100 198.809 C 151.351 195.659,151.782 195.200,151.491 195.200 C 151.431 195.200,149.856 196.775,147.991 198.700 M171.600 201.400 C 170.628 202.390,169.923 203.200,170.033 203.200 C 170.143 203.200,171.028 202.390,172.000 201.400 C 172.972 200.410,173.677 199.600,173.567 199.600 C 173.457 199.600,172.572 200.410,171.600 201.400 M153.194 206.700 L 148.200 211.800 153.300 206.806 C 158.037 202.167,158.581 201.600,158.294 201.600 C 158.236 201.600,155.941 203.895,153.194 206.700 M155.993 216.700 L 151.800 221.000 156.100 216.807 C 160.094 212.913,160.582 212.400,160.293 212.400 C 160.234 212.400,158.299 214.335,155.993 216.700 M129.387 216.900 L 127.000 219.400 129.500 217.013 C 131.822 214.795,132.183 214.400,131.887 214.400 C 131.826 214.400,130.701 215.525,129.387 216.900 M138.400 221.000 C 137.428 221.990,136.723 222.800,136.833 222.800 C 136.943 222.800,137.828 221.990,138.800 221.000 C 139.772 220.010,140.477 219.200,140.367 219.200 C 140.257 219.200,139.372 220.010,138.400 221.000 M141.591 230.700 L 138.200 234.200 141.700 230.809 C 144.951 227.659,145.382 227.200,145.091 227.200 C 145.031 227.200,143.456 228.775,141.591 230.700 M121.387 237.700 L 119.000 240.200 121.500 237.813 C 123.822 235.595,124.183 235.200,123.887 235.200 C 123.826 235.200,122.701 236.325,121.387 237.700 M122.987 248.900 L 120.600 251.400 123.100 249.013 C 124.475 247.699,125.600 246.574,125.600 246.513 C 125.600 246.217,125.205 246.578,122.987 248.900 M103.588 255.100 L 101.000 257.800 103.700 255.212 C 106.208 252.807,106.583 252.400,106.288 252.400 C 106.227 252.400,105.012 253.615,103.588 255.100 M89.392 268.900 L 85.800 272.600 89.500 269.008 C 91.535 267.033,93.200 265.368,93.200 265.308 C 93.200 265.018,92.728 265.464,89.392 268.900 M84.935 273.947 C 84.638 274.746,84.612 275.284,84.862 275.438 C 85.472 275.815,85.668 275.389,85.528 273.987 L 85.400 272.697 84.935 273.947 M184.100 297.476 C 184.485 297.576,185.115 297.576,185.500 297.476 C 185.885 297.375,185.570 297.293,184.800 297.293 C 184.030 297.293,183.715 297.375,184.100 297.476 M207.905 297.483 C 208.402 297.579,209.122 297.575,209.505 297.475 C 209.887 297.375,209.480 297.296,208.600 297.301 C 207.720 297.305,207.407 297.387,207.905 297.483 M193.718 297.898 C 195.433 297.973,198.133 297.972,199.718 297.897 C 201.303 297.821,199.900 297.759,196.600 297.760 C 193.300 297.761,192.003 297.822,193.718 297.898 " stroke="none" fill="#544c74" fill-rule="evenodd"></path></g></svg>